<svg width="16" height="16" viewBox="0 0 16 16" fill="none" xmlns="http://www.w3.org/2000/svg">
<path fill-rule="evenodd" clip-rule="evenodd" d="M9.55556 2.02021C9.55556 1.45676 9.09879 1 8.53534 1H7.46465C6.90121 1 6.44444 1.45676 6.44444 2.02021V2.22015C6.44444 2.55289 6.22113 2.84197 5.91382 2.96956V2.96956C5.60639 3.0972 5.24844 3.04856 5.01307 2.81318L4.79789 2.598C4.34489 2.14501 3.61044 2.14501 3.15744 2.598L2.598 3.15744C2.145 3.61044 2.145 4.34489 2.598 4.79789L2.81318 5.01307C3.04855 5.24844 3.0972 5.60639 2.96956 5.91382V5.91382C2.84197 6.22113 2.55289 6.44444 2.22015 6.44444H2.02021C1.45676 6.44444 1 6.90121 1 7.46466V8.53535C1 9.09879 1.45676 9.55556 2.02021 9.55556H2.3376C2.60066 9.55556 2.82985 9.73128 2.92538 9.97639V9.97639C3.01718 10.2119 2.97342 10.4816 2.79466 10.6604L2.54703 10.908C2.12218 11.3329 2.12218 12.0217 2.54703 12.4465L3.29746 13.197C3.67312 13.5726 4.28218 13.5726 4.65784 13.197L4.69246 13.1624C4.98492 12.8699 5.43322 12.8205 5.81189 12.9869V12.9869C6.17618 13.147 6.44444 13.4918 6.44444 13.8897V13.9798C6.44444 14.5432 6.90121 15 7.46466 15H8.53535C9.09879 15 9.55556 14.5432 9.55556 13.9798V13.7798C9.55556 13.4471 9.77887 13.158 10.0862 13.0304V13.0304C10.3936 12.9028 10.7516 12.9514 10.9869 13.1868L11.0547 13.2546C11.3985 13.5984 11.956 13.5984 12.2999 13.2546L13.2546 12.2999C13.5984 11.956 13.5984 11.3985 13.2546 11.0547L13.1868 10.9869C12.9514 10.7516 12.9028 10.3936 13.0304 10.0862V10.0862C13.158 9.77887 13.4471 9.55556 13.7799 9.55556H13.9798C14.5432 9.55556 15 9.09879 15 8.53534V7.46466C15 6.90121 14.5432 6.44444 13.9798 6.44444H13.8897C13.4918 6.44444 13.147 6.17618 12.9869 5.81189V5.81189C12.8205 5.43322 12.8699 4.98492 13.1624 4.69246L13.197 4.65785C13.5726 4.28219 13.5726 3.67314 13.197 3.29748L12.4465 2.54703C12.0217 2.12218 11.3329 2.12219 10.908 2.54703L10.6604 2.79466C10.4816 2.97342 10.2119 3.01718 9.97639 2.92538V2.92538C9.73128 2.82985 9.55556 2.60066 9.55556 2.33759V2.02021ZM8 10.3333C9.28866 10.3333 10.3333 9.28866 10.3333 8C10.3333 6.71134 9.28866 5.66667 8 5.66667C6.71134 5.66667 5.66667 6.71134 5.66667 8C5.66667 9.28866 6.71134 10.3333 8 10.3333Z" stroke="white" stroke-linejoin="round"/>
</svg>
