<svg width="23" height="22" viewBox="0 0 23 22" fill="none" xmlns="http://www.w3.org/2000/svg">
<path fill-rule="evenodd" clip-rule="evenodd" d="M0.75 10C0.75 4.54285 5.63922 0.25 11.5 0.25C17.3608 0.25 22.25 4.54285 22.25 10C22.25 13.0604 20.4016 15.6636 18.2548 17.6172C16.0952 19.5825 13.515 21.0018 11.7785 21.6964C11.5475 21.7888 11.2856 21.7606 11.0795 21.621C10.8734 21.4815 10.75 21.2489 10.75 21V19.2225C8.31784 19.0454 5.95576 18.0227 4.14486 16.5137C2.15218 14.8531 0.75 12.5337 0.75 10ZM7 11.5C7.82843 11.5 8.5 10.8284 8.5 10C8.5 9.17157 7.82843 8.5 7 8.5C6.17157 8.5 5.5 9.17157 5.5 10C5.5 10.8284 6.17157 11.5 7 11.5ZM11.5 11.5C12.3284 11.5 13 10.8284 13 10C13 9.17157 12.3284 8.5 11.5 8.5C10.6716 8.5 10 9.17157 10 10C10 10.8284 10.6716 11.5 11.5 11.5ZM17.5 10C17.5 10.8284 16.8284 11.5 16 11.5C15.1716 11.5 14.5 10.8284 14.5 10C14.5 9.17157 15.1716 8.5 16 8.5C16.8284 8.5 17.5 9.17157 17.5 10Z" fill="#49525A"/>
</svg>
