<svg width="15" height="14" viewBox="0 0 15 14" fill="none" xmlns="http://www.w3.org/2000/svg">
<path id="Vector" d="M12.4086 8.04312H14.7857C14.8413 8.04316 14.8948 8.022 14.9348 7.98411C14.9748 7.94624 14.9982 7.8946 15 7.84013V6.16012C15 6.10443 14.9774 6.05102 14.9372 6.01164C14.8971 5.97226 14.8426 5.95013 14.7857 5.95013H11.4543L8.83005 0.166721C8.80782 0.117549 8.77164 0.0756898 8.72578 0.0461452C8.67992 0.0166006 8.62635 0.000624031 8.57148 0.00012207H6.42864C6.37353 0.000354739 6.31965 0.0162064 6.27353 0.045766C6.22738 0.0753279 6.19096 0.117333 6.16864 0.166721L3.5458 5.94313H0.214403C0.185652 5.94311 0.157191 5.94875 0.130716 5.95976C0.104241 5.97075 0.0802937 5.98684 0.0602994 6.00709C0.0403049 6.02732 0.0246724 6.05132 0.0143336 6.0776C0.00399477 6.10391 -0.000839296 6.13196 0.00011909 6.16012V7.84013C0.00011909 7.89582 0.0226953 7.94923 0.0628813 7.98861C0.103067 8.02799 0.157571 8.05012 0.214403 8.05012H2.59153L0.0201189 13.7117C0.00716371 13.7433 0.00221078 13.7774 0.0056847 13.8112C0.00915859 13.845 0.0209554 13.8775 0.0400631 13.9059C0.0591706 13.9342 0.0850176 13.9576 0.115384 13.9741C0.145751 13.9905 0.17973 13.9994 0.214403 14.0001H2.12725C2.18261 14.0002 2.23679 13.9844 2.28319 13.9549C2.3296 13.9253 2.36625 13.8831 2.38867 13.8335L7.50006 2.58312L12.6115 13.8335C12.6339 13.8831 12.6705 13.9253 12.7169 13.9549C12.7633 13.9844 12.8175 14.0002 12.8729 14.0001H14.7857C14.8214 14.0001 14.8566 13.9914 14.888 13.9747C14.9193 13.958 14.9459 13.9338 14.9654 13.9045C14.9848 13.8751 14.9965 13.8415 14.9993 13.8066C15.0021 13.7717 14.996 13.7367 14.9814 13.7047L12.4086 8.04312Z" fill="white"/>
</svg>
