<svg width="30" height="32" viewBox="0 0 30 32" fill="none" xmlns="http://www.w3.org/2000/svg">
<rect x="0.5" y="0.5" width="29" height="31" rx="3.5" fill="#283B4A"/>
<path d="M18.3158 8H9.47368C8.66316 8 8 8.65455 8 9.45455V19.6364H9.47368V9.45455H18.3158V8ZM20.5263 10.9091H12.4211C11.6105 10.9091 10.9474 11.5636 10.9474 12.3636V22.5455C10.9474 23.3455 11.6105 24 12.4211 24H20.5263C21.3368 24 22 23.3455 22 22.5455V12.3636C22 11.5636 21.3368 10.9091 20.5263 10.9091ZM20.5263 22.5455H12.4211V12.3636H20.5263V22.5455Z" fill="#D9D9D9"/>
<rect x="0.5" y="0.5" width="29" height="31" rx="3.5" stroke="#49525A"/>
</svg>
