<svg width="14" height="17" viewBox="0 0 14 17" fill="none" xmlns="http://www.w3.org/2000/svg">
<path d="M7.85714 0.5H3C1.89543 0.5 1 1.39543 1 2.5V14.5C1 15.6046 1.89543 16.5 3 16.5H11C12.1046 16.5 13 15.6046 13 14.5V5.83333M7.85714 0.5V3.83333C7.85714 4.9379 8.75257 5.83333 9.85714 5.83333H13M7.85714 0.5V0.5C8.40019 0.5 8.92722 0.720822 9.30417 1.11173L12.4397 4.36338C12.7991 4.73615 13 5.23381 13 5.75165V5.83333" stroke="#ECEDF1" stroke-linecap="round" stroke-linejoin="round"/>
<path d="M5 12H9" stroke="#ECEDF1" stroke-linecap="round"/>
<path d="M5 9H9" stroke="#ECEDF1" stroke-linecap="round"/>
</svg>
