<svg width="14" height="18" viewBox="0 0 14 18" fill="none" xmlns="http://www.w3.org/2000/svg">
<path d="M12 17.0005H2C1.44772 17.0005 1 16.5528 1 16.0005V2.00049C1 1.4482 1.44772 1.00049 2 1.00049H7.85714H8.26107C8.54911 1.00049 8.82317 1.12469 9.01304 1.34129L12.752 5.60644C12.9119 5.78882 13 6.0231 13 6.26564V6.86716V16.0005C13 16.5528 12.5523 17.0005 12 17.0005Z" fill="#ECEDF1" fill-opacity="0.2"/>
<path d="M7.85714 1.00049H2C1.44772 1.00049 1 1.4482 1 2.00049V16.0005C1 16.5528 1.44772 17.0005 2 17.0005H12C12.5523 17.0005 13 16.5528 13 16.0005V6.86716M7.85714 1.00049V5.86716C7.85714 6.41944 8.30486 6.86716 8.85714 6.86716H13M7.85714 1.00049H8.26107C8.54911 1.00049 8.82317 1.12469 9.01304 1.34129L12.752 5.60644C12.9119 5.78882 13 6.0231 13 6.26564V6.86716" stroke="#ECEDF1" stroke-linecap="round" stroke-linejoin="round"/>
</svg>
