<svg width="30" height="30" viewBox="0 0 30 30" fill="none" xmlns="http://www.w3.org/2000/svg">
<rect y="0.00012207" width="30" height="30" rx="15" fill="#EBDA3D"/>
<path d="M15.492 18.172H13.0477C13.0545 17.5197 13.1057 16.9606 13.2011 16.4946C13.3034 16.0287 13.4705 15.6093 13.7023 15.2366C13.9341 14.8566 14.2477 14.4695 14.6432 14.0753C14.9568 13.767 15.2364 13.4767 15.4818 13.2043C15.7341 12.9247 15.9318 12.6344 16.075 12.3333C16.2182 12.0251 16.2898 11.6774 16.2898 11.2903C16.2898 10.853 16.2216 10.4875 16.0852 10.1935C15.9557 9.89964 15.7614 9.67742 15.5023 9.52688C15.25 9.36918 14.933 9.29032 14.5511 9.29032C14.2375 9.29032 13.9409 9.35842 13.6614 9.49462C13.3818 9.63082 13.1568 9.84229 12.9864 10.129C12.8159 10.4086 12.7239 10.7742 12.7102 11.2258H10C10.0205 10.2867 10.2318 9.50538 10.6341 8.88172C11.0364 8.2509 11.5784 7.78136 12.2602 7.47312C12.942 7.15771 13.7057 7 14.5511 7C15.4852 7 16.283 7.16487 16.9443 7.49462C17.6125 7.8172 18.1205 8.29032 18.4682 8.91398C18.8227 9.53763 19 10.2903 19 11.172C19 11.8029 18.8841 12.3692 18.6523 12.871C18.4205 13.3656 18.1136 13.828 17.7318 14.2581C17.35 14.6882 16.9375 15.1219 16.4943 15.5591C16.1057 15.9247 15.8432 16.3154 15.7068 16.7312C15.5705 17.147 15.4989 17.6272 15.492 18.172ZM12.792 21.5161C12.792 21.086 12.9284 20.7276 13.2011 20.4409C13.4807 20.1541 13.8557 20.0108 14.3261 20.0108C14.7966 20.0108 15.1682 20.1541 15.4409 20.4409C15.7205 20.7276 15.8602 21.086 15.8602 21.5161C15.8602 21.9319 15.7205 22.2832 15.4409 22.5699C15.1682 22.8566 14.7966 23 14.3261 23C13.8557 23 13.4807 22.8566 13.2011 22.5699C12.9284 22.2832 12.792 21.9319 12.792 21.5161Z" fill="#141D25"/>
</svg>
