<svg width="34" height="28" viewBox="0 0 34 28" fill="none" xmlns="http://www.w3.org/2000/svg">
<path d="M30.3333 3.99996H16.9999L13.6666 0.666626H3.66659C1.83325 0.666626 0.349919 2.16663 0.349919 3.99996L0.333252 24C0.333252 25.8333 1.83325 27.3333 3.66659 27.3333H30.3333C32.1666 27.3333 33.6666 25.8333 33.6666 24V7.33329C33.6666 5.49996 32.1666 3.99996 30.3333 3.99996ZM23.6666 20.6666H26.9999V17.3333H23.6666V14H26.9999V10.6666H23.6666V7.33329H30.3333V24H23.6666V20.6666ZM23.6666 20.6666H20.3333V24H3.66659V3.99996H12.2833L15.6166 7.33329H20.3333V10.6666H23.6666V14H20.3333V17.3333H23.6666V20.6666Z" fill="white"/>
</svg>
