<svg width="16" height="16" viewBox="0 0 16 16" fill="none" xmlns="http://www.w3.org/2000/svg">
<circle cx="7.99963" cy="4" r="3.5" stroke="#ECEDF1"/>
<path d="M15.4996 12.7059C15.4996 12.9843 15.3647 13.2964 15.0222 13.6298C14.6781 13.9648 14.1542 14.2895 13.4661 14.5728C12.0923 15.1385 10.1599 15.5 7.99963 15.5C5.83936 15.5 3.90694 15.1385 2.53315 14.5728C1.84508 14.2895 1.32118 13.9648 0.977092 13.6298C0.634584 13.2964 0.499634 12.9843 0.499634 12.7059C0.499634 12.4274 0.634584 12.1153 0.977092 11.7819C1.32118 11.4469 1.84508 11.1222 2.53315 10.8389C3.90694 10.2732 5.83936 9.91174 7.99963 9.91174C10.1599 9.91174 12.0923 10.2732 13.4661 10.8389C14.1542 11.1222 14.6781 11.4469 15.0222 11.7819C15.3647 12.1153 15.4996 12.4274 15.4996 12.7059Z" stroke="#ECEDF1"/>
</svg>
