<svg width="30" height="30" viewBox="0 0 30 30" fill="none" xmlns="http://www.w3.org/2000/svg">
<path d="M15.0001 0C6.72003 0 0 6.72003 0 15.0001C0 23.2801 6.72003 30.0001 15.0001 30.0001C23.2801 30.0001 30.0001 23.2801 30.0001 15.0001C30.0001 6.72003 23.2801 0 15.0001 0ZM8.02503 24.7501C9.99004 23.3401 12.3901 22.5001 15.0001 22.5001C17.6101 22.5001 20.0101 23.3401 21.9751 24.7501C20.0101 26.1601 17.6101 27.0001 15.0001 27.0001C12.3901 27.0001 9.99004 26.1601 8.02503 24.7501ZM24.2101 22.6801C21.6751 20.7001 18.4801 19.5001 15.0001 19.5001C11.52 19.5001 8.32504 20.7001 5.79003 22.6801C4.05002 20.5951 3.00001 17.9251 3.00001 15.0001C3.00001 8.37004 8.37004 3.00001 15.0001 3.00001C21.6301 3.00001 27.0001 8.37004 27.0001 15.0001C27.0001 17.9251 25.9501 20.5951 24.2101 22.6801Z" fill="white"/>
<path d="M15.0001 6.00003C12.1051 6.00003 9.75004 8.35504 9.75004 11.25C9.75004 14.1451 12.1051 16.5001 15.0001 16.5001C17.8951 16.5001 20.2501 14.1451 20.2501 11.25C20.2501 8.35504 17.8951 6.00003 15.0001 6.00003ZM15.0001 13.5001C13.7551 13.5001 12.7501 12.4951 12.7501 11.25C12.7501 10.005 13.7551 9.00004 15.0001 9.00004C16.2451 9.00004 17.2501 10.005 17.2501 11.25C17.2501 12.4951 16.2451 13.5001 15.0001 13.5001Z" fill="white"/>
</svg>
