<svg width="16" height="18" viewBox="0 0 16 18" fill="none" xmlns="http://www.w3.org/2000/svg">
<path fill-rule="evenodd" clip-rule="evenodd" d="M7.99951 1.8C6.52675 1.8 5.33285 3.00883 5.33285 4.5C5.33285 5.99117 6.52675 7.2 7.99951 7.2C9.47227 7.2 10.6662 5.99117 10.6662 4.5C10.6662 3.00883 9.47227 1.8 7.99951 1.8ZM3.55507 4.5C3.55507 2.01472 5.54491 0 7.99951 0C10.4541 0 12.444 2.01472 12.444 4.5C12.444 6.98528 10.4541 9 7.99951 9C5.54491 9 3.55507 6.98528 3.55507 4.5ZM2.03692 14.0225C1.78638 14.2474 1.77729 14.377 1.77729 14.4C1.77729 14.423 1.78638 14.5526 2.03692 14.7775C2.28643 15.0015 2.69819 15.2443 3.28331 15.4665C4.44697 15.9083 6.1142 16.2 7.99951 16.2C9.88482 16.2 11.552 15.9083 12.7157 15.4665C13.3008 15.2443 13.7126 15.0015 13.9621 14.7775C14.2126 14.5526 14.2217 14.423 14.2217 14.4C14.2217 14.377 14.2126 14.2474 13.9621 14.0225C13.7126 13.7985 13.3008 13.5557 12.7157 13.3335C11.552 12.8917 9.88482 12.6 7.99951 12.6C6.1142 12.6 4.44697 12.8917 3.28331 13.3335C2.69819 13.5557 2.28643 13.7985 2.03692 14.0225ZM2.65909 11.6481C4.06914 11.1127 5.95746 10.8 7.99951 10.8C10.0416 10.8 11.9299 11.1127 13.3399 11.6481C14.0417 11.9146 14.6713 12.2535 15.1415 12.6756C15.6106 13.0967 15.9995 13.6774 15.9995 14.4C15.9995 15.1226 15.6106 15.7033 15.1415 16.1244C14.6713 16.5465 14.0417 16.8854 13.3399 17.1519C11.9299 17.6873 10.0416 18 7.99951 18C5.95746 18 4.06914 17.6873 2.65909 17.1519C1.95734 16.8854 1.32771 16.5465 0.857532 16.1244C0.388394 15.7033 -0.000488281 15.1226 -0.000488281 14.4C-0.000488281 13.6774 0.388394 13.0967 0.857532 12.6756C1.32771 12.2535 1.95734 11.9146 2.65909 11.6481Z" fill="#ECEDF1"/>
</svg>
