<svg width="49" height="34" viewBox="0 0 49 34" fill="none" xmlns="http://www.w3.org/2000/svg">
<path fill-rule="evenodd" clip-rule="evenodd" d="M42.7562 1.00964C44.8216 1.56518 46.4478 3.20236 46.9998 5.28082C48.0029 9.04854 48.0029 16.9091 48.0029 16.9091C48.0029 16.9091 48.0029 24.7699 46.9998 28.5376C46.4478 30.6161 44.8216 32.253 42.7562 32.8088C39.013 33.8182 24.0029 33.8182 24.0029 33.8182C24.0029 33.8182 8.99284 33.8182 5.24938 32.8088C3.18429 32.253 1.55775 30.6161 1.00575 28.5376C0.00292969 24.7699 0.00292969 16.9091 0.00292969 16.9091C0.00292969 16.9091 0.00292969 9.04854 1.00575 5.28082C1.55775 3.20236 3.18429 1.56518 5.24938 1.00964C8.99284 0 24.0029 0 24.0029 0C24.0029 0 39.013 0 42.7562 1.00964ZM31.6369 16.9091L19.0915 24.0459V9.77213L31.6369 16.9091Z" fill="white"/>
</svg>
