<svg width="40" height="40" viewBox="0 0 40 40" fill="none" xmlns="http://www.w3.org/2000/svg">
<rect x="0.5" y="0.5" width="39" height="39" rx="9.5" fill="#29323B"/>
<rect x="12.5" y="16.4998" width="15" height="11" rx="1.5" stroke="#ECEDF1"/>
<path fill-rule="evenodd" clip-rule="evenodd" d="M13.8002 15.1958L24.4669 13.0211C25.0867 12.8947 25.6667 13.3684 25.6667 14.0009V15.9998H26C26.2338 15.9998 26.4581 16.0399 26.6667 16.1136V14.0009C26.6667 12.7358 25.5068 11.7885 24.2671 12.0413L13.6005 14.2159C12.6691 14.4058 12 15.2251 12 16.1756V17.9998C12 17.2595 12.4022 16.6131 13 16.2673V16.1756C13 15.7003 13.3345 15.2907 13.8002 15.1958Z" fill="#ECEDF1"/>
<path d="M24.8337 22.0173C24.8337 22.6222 24.4083 23.0124 24.0003 23.0124C23.5924 23.0124 23.167 22.6222 23.167 22.0173C23.167 21.4124 23.5924 21.0222 24.0003 21.0222C24.4083 21.0222 24.8337 21.4124 24.8337 22.0173Z" fill="#ECEDF1" stroke="#ECEDF1"/>
<rect x="0.5" y="0.5" width="39" height="39" rx="9.5" stroke="#49525A"/>
</svg>
