<svg width="40" height="40" viewBox="0 0 40 40" fill="none" xmlns="http://www.w3.org/2000/svg">
<rect x="0.5" y="0.5" width="39" height="39" rx="9.5" fill="#29323B"/>
<path d="M21.1429 10H14C12.8954 10 12 10.8954 12 12V28C12 29.1046 12.8954 30 14 30H26C27.1046 30 28 29.1046 28 28V17.3333M21.1429 10V15.3333C21.1429 16.4379 22.0383 17.3333 23.1429 17.3333H28M21.1429 10H21.4177C21.9714 10 22.5004 10.2296 22.8786 10.634L27.4608 15.5345C27.8073 15.905 28 16.3933 28 16.9005V17.3333" stroke="#ECEDF1" stroke-linecap="round" stroke-linejoin="round"/>
<rect x="0.5" y="0.5" width="39" height="39" rx="9.5" stroke="#49525A"/>
</svg>
