<svg width="71" height="26" viewBox="0 0 71 26" fill="none" xmlns="http://www.w3.org/2000/svg">
<rect y="0.00012207" width="71" height="26" rx="4" fill="#E42828" fill-opacity="0.7"/>
<path d="M17.3333 13.0001H12.6667M20.25 13.0001C20.25 10.1006 17.8995 7.75012 15 7.75012C12.1005 7.75012 9.75 10.1006 9.75 13.0001C9.75 15.8996 12.1005 18.2501 15 18.2501C17.8995 18.2501 20.25 15.8996 20.25 13.0001Z" stroke="white" stroke-linecap="round" stroke-linejoin="round"/>
<path d="M32.0176 14.2618H28.5137V16.67H32.6094V18.0001H26.8613V9.46887H32.5918V10.8107H28.5137V12.9611H32.0176V14.2618ZM38.5859 11.5431C38.832 11.5431 39.0586 11.5607 39.2656 11.5958C39.4766 11.6271 39.6465 11.6622 39.7754 11.7013L39.5352 13.3243C39.3203 13.2736 39.0996 13.2365 38.873 13.213C38.6504 13.1857 38.4375 13.172 38.2344 13.172C37.7773 13.172 37.4102 13.2599 37.1328 13.4357C36.8594 13.6115 36.6543 13.8634 36.5176 14.1915V18.0001H34.8887V11.6603H36.4062L36.4824 12.6974C36.7402 12.338 37.0488 12.0568 37.4082 11.8536C37.7676 11.6466 38.1602 11.5431 38.5859 11.5431ZM45.793 11.5431C46.0391 11.5431 46.2656 11.5607 46.4727 11.5958C46.6836 11.6271 46.8535 11.6622 46.9824 11.7013L46.7422 13.3243C46.5273 13.2736 46.3066 13.2365 46.0801 13.213C45.8574 13.1857 45.6445 13.172 45.4414 13.172C44.9844 13.172 44.6172 13.2599 44.3398 13.4357C44.0664 13.6115 43.8613 13.8634 43.7246 14.1915V18.0001H42.0957V11.6603H43.6133L43.6895 12.6974C43.9473 12.338 44.2559 12.0568 44.6152 11.8536C44.9746 11.6466 45.3672 11.5431 45.793 11.5431ZM48.2246 14.7716C48.2246 14.3107 48.291 13.8849 48.4238 13.4943C48.5566 13.0997 48.75 12.7579 49.0039 12.4689C49.2617 12.1798 49.5742 11.9532 49.9414 11.7892C50.3125 11.6251 50.7363 11.5431 51.2129 11.5431C51.6895 11.5431 52.1133 11.6251 52.4844 11.7892C52.8555 11.9532 53.168 12.1798 53.4219 12.4689C53.6797 12.7579 53.875 13.0997 54.0078 13.4943C54.1406 13.8849 54.207 14.3107 54.207 14.7716V14.8947C54.207 15.3595 54.1406 15.7892 54.0078 16.1837C53.875 16.5743 53.6816 16.9142 53.4277 17.2032C53.1738 17.4923 52.8613 17.7189 52.4902 17.8829C52.1191 18.0431 51.6973 18.1232 51.2246 18.1232C50.748 18.1232 50.3223 18.0431 49.9473 17.8829C49.5762 17.7189 49.2617 17.4923 49.0039 17.2032C48.75 16.9142 48.5566 16.5743 48.4238 16.1837C48.291 15.7892 48.2246 15.3595 48.2246 14.8947V14.7716ZM49.8535 14.8947C49.8535 15.1603 49.8789 15.4103 49.9297 15.6447C49.9805 15.8751 50.0605 16.0782 50.1699 16.254C50.2793 16.4259 50.4199 16.5626 50.5918 16.6642C50.7676 16.7657 50.9785 16.8165 51.2246 16.8165C51.4629 16.8165 51.668 16.7657 51.8398 16.6642C52.0117 16.5626 52.1504 16.4259 52.2559 16.254C52.3652 16.0782 52.4453 15.8751 52.4961 15.6447C52.5469 15.4103 52.5723 15.1603 52.5723 14.8947V14.7716C52.5723 14.5138 52.5469 14.2697 52.4961 14.0392C52.4453 13.8087 52.3652 13.6056 52.2559 13.4298C52.1504 13.254 52.0117 13.1154 51.8398 13.0138C51.668 12.9122 51.459 12.8615 51.2129 12.8615C50.9707 12.8615 50.7637 12.9122 50.5918 13.0138C50.4199 13.1154 50.2793 13.254 50.1699 13.4298C50.0605 13.6056 49.9805 13.8087 49.9297 14.0392C49.8789 14.2697 49.8535 14.5138 49.8535 14.7716V14.8947ZM60.207 11.5431C60.4531 11.5431 60.6797 11.5607 60.8867 11.5958C61.0977 11.6271 61.2676 11.6622 61.3965 11.7013L61.1562 13.3243C60.9414 13.2736 60.7207 13.2365 60.4941 13.213C60.2715 13.1857 60.0586 13.172 59.8555 13.172C59.3984 13.172 59.0312 13.2599 58.7539 13.4357C58.4805 13.6115 58.2754 13.8634 58.1387 14.1915V18.0001H56.5098V11.6603H58.0273L58.1035 12.6974C58.3613 12.338 58.6699 12.0568 59.0293 11.8536C59.3887 11.6466 59.7812 11.5431 60.207 11.5431Z" fill="#ECEDF1"/>
</svg>
