<svg width="140" height="36" viewBox="0 0 140 36" fill="none" xmlns="http://www.w3.org/2000/svg">
<path d="M49.2637 6C50.8479 6 52.2193 6.29851 53.3778 6.89552C54.5601 7.46866 55.4822 8.29254 56.1442 9.36716C56.8063 10.4418 57.1373 11.7194 57.1373 13.2C57.1373 14.6806 56.8063 15.9582 56.1442 17.0328C55.4822 18.1075 54.5601 18.9433 53.3778 19.5403C52.2193 20.1134 50.8479 20.4 49.2637 20.4H43.8373V29.6418H41V6H49.2637ZM48.8381 17.7134C50.6824 17.7134 52.0301 17.3313 52.8813 16.5672C53.7325 15.7791 54.1581 14.6567 54.1581 13.2C54.1581 11.7194 53.7325 10.597 52.8813 9.83284C52.0301 9.06866 50.6824 8.68657 48.8381 8.68657H43.8373V17.7134H48.8381Z" fill="#ECEDF1"/>
<path d="M71.0527 18.0716C71.0527 16.7343 70.698 15.7075 69.9887 14.991C69.2793 14.2507 68.2745 13.8806 66.974 13.8806C65.7445 13.8806 64.7042 14.1552 63.853 14.7045C63.0018 15.2299 62.3752 16.0896 61.9732 17.2836L59.6679 15.8507C60.1408 14.5134 61.0156 13.4388 62.2924 12.6269C63.5692 11.791 65.1534 11.3731 67.0449 11.3731C68.3217 11.3731 69.4803 11.6 70.5207 12.0537C71.561 12.4836 72.3768 13.1522 72.9679 14.0597C73.5826 14.9433 73.89 16.0896 73.89 17.4985V26.1672C73.89 27.0269 74.3392 27.4567 75.2377 27.4567C75.687 27.4567 76.1244 27.397 76.55 27.2776L76.4081 29.5343C75.9352 29.7731 75.3205 29.8925 74.5639 29.8925C73.8782 29.8925 73.2634 29.7612 72.7196 29.4985C72.1758 29.2358 71.7502 28.8418 71.4428 28.3164C71.1354 27.7672 70.9817 27.0866 70.9817 26.2746V25.9164L71.6911 26.0239C71.4073 26.9552 70.9226 27.7194 70.2369 28.3164C69.5513 28.8896 68.7828 29.3194 67.9316 29.606C67.0804 29.8687 66.241 30 65.4135 30C64.3731 30 63.4037 29.8209 62.5052 29.4627C61.6067 29.1045 60.8856 28.5672 60.3418 27.8507C59.8216 27.1104 59.5615 26.203 59.5615 25.1284C59.5615 23.791 59.9989 22.6925 60.8738 21.8328C61.7722 20.9493 63.0136 20.3522 64.5978 20.0418L71.6201 18.6448V21.009L65.91 22.191C64.7514 22.4299 63.8884 22.7642 63.321 23.194C62.7535 23.6239 62.4698 24.2209 62.4698 24.9851C62.4698 25.7254 62.7535 26.3343 63.321 26.8119C63.9121 27.2657 64.7396 27.4925 65.8036 27.4925C66.4893 27.4925 67.1395 27.409 67.7543 27.2418C68.3927 27.0507 68.9601 26.7761 69.4567 26.4179C69.9532 26.0358 70.3433 25.5702 70.6271 25.0209C70.9108 24.4478 71.0527 23.7791 71.0527 23.0149V18.0716Z" fill="#ECEDF1"/>
<path d="M82.8586 6.64478V24.6985C82.8586 25.5821 83.1069 26.2388 83.6034 26.6687C84.0999 27.0985 84.7383 27.3134 85.5186 27.3134C86.2043 27.3134 86.7954 27.194 87.2919 26.9552C87.7885 26.7164 88.2377 26.394 88.6397 25.9881L89.6327 28.3881C89.0889 28.8896 88.4387 29.2836 87.6821 29.5702C86.9491 29.8567 86.0979 30 85.1285 30C84.23 30 83.3906 29.8448 82.6103 29.5343C81.8301 29.2 81.2035 28.6866 80.7306 27.994C80.2814 27.2776 80.0449 26.3463 80.0213 25.2V7.43284L82.8586 6.64478ZM89.3135 11.7313V14.203H76.4746V11.7313H89.3135Z" fill="#ECEDF1"/>
<path d="M92.1135 29.6418V11.7313H94.4188L94.8089 14.6687C95.3055 13.5701 96.0266 12.7463 96.9724 12.197C97.9418 11.6478 99.1122 11.3731 100.484 11.3731C100.791 11.3731 101.122 11.397 101.477 11.4448C101.855 11.4925 102.174 11.5881 102.434 11.7313L101.938 14.3463C101.678 14.2507 101.394 14.1791 101.087 14.1313C100.779 14.0836 100.342 14.0597 99.7742 14.0597C99.0413 14.0597 98.2965 14.2746 97.5398 14.7045C96.8069 15.1343 96.1921 15.791 95.6956 16.6746C95.1991 17.5343 94.9508 18.6328 94.9508 19.9701V29.6418H92.1135Z" fill="#ECEDF1"/>
<path d="M111.96 11.3731C113.639 11.3731 115.116 11.7433 116.393 12.4836C117.694 13.2239 118.71 14.2985 119.443 15.7075C120.176 17.0925 120.543 18.7522 120.543 20.6866C120.543 22.6209 120.176 24.2925 119.443 25.7015C118.71 27.0866 117.694 28.1493 116.393 28.8896C115.116 29.6299 113.639 30 111.96 30C110.305 30 108.827 29.6299 107.526 28.8896C106.226 28.1493 105.209 27.0866 104.476 25.7015C103.743 24.2925 103.377 22.6209 103.377 20.6866C103.377 18.7522 103.743 17.0925 104.476 15.7075C105.209 14.2985 106.226 13.2239 107.526 12.4836C108.827 11.7433 110.305 11.3731 111.96 11.3731ZM111.96 13.8448C110.754 13.8448 109.725 14.1194 108.874 14.6687C108.023 15.2179 107.361 16.006 106.888 17.0328C106.439 18.0358 106.214 19.2537 106.214 20.6866C106.214 22.0955 106.439 23.3134 106.888 24.3403C107.361 25.3672 108.023 26.1552 108.874 26.7045C109.725 27.2537 110.754 27.5284 111.96 27.5284C113.166 27.5284 114.194 27.2537 115.045 26.7045C115.897 26.1552 116.547 25.3672 116.996 24.3403C117.469 23.3134 117.705 22.0955 117.705 20.6866C117.705 19.2537 117.469 18.0358 116.996 17.0328C116.547 16.006 115.897 15.2179 115.045 14.6687C114.194 14.1194 113.166 13.8448 111.96 13.8448Z" fill="#ECEDF1"/>
<path d="M124.466 29.6418V11.7313H126.948L127.197 15.7433L126.735 15.3493C127.114 14.394 127.622 13.6299 128.261 13.0567C128.899 12.4597 129.632 12.0299 130.459 11.7672C131.311 11.5045 132.186 11.3731 133.084 11.3731C134.361 11.3731 135.519 11.6239 136.56 12.1254C137.6 12.603 138.428 13.3433 139.042 14.3463C139.681 15.3493 140 16.6269 140 18.1791V29.6418H137.163V19.1821C137.163 17.2 136.737 15.8269 135.886 15.0627C135.058 14.2746 134.03 13.8806 132.8 13.8806C131.949 13.8806 131.098 14.0836 130.247 14.4896C129.396 14.8955 128.686 15.5522 128.119 16.4597C127.575 17.3672 127.303 18.5851 127.303 20.1134V29.6418H124.466Z" fill="#ECEDF1"/>
<path d="M26.2875 9C26.681 9 27 8.68102 27 8.28753V0.712468C27 0.318983 26.681 0 26.2875 0H18.7125C18.319 0 18 0.318983 18 0.712468V8.28753C18 8.68102 17.681 9 17.2875 9H9.71247C9.31898 9 9 8.68102 9 8.28753V0.712468C9 0.318983 8.68102 0 8.28753 0H0.712468C0.318983 0 0 0.318983 0 0.712468V8.28753C0 8.68102 0.318983 9 0.712468 9H8.28753C8.68102 9 9 9.31898 9 9.71247V17.2875C9 17.681 8.68102 18 8.28753 18H0.712468C0.318983 18 0 18.319 0 18.7125V35.2875C0 35.681 0.318983 36 0.712468 36H8.28753C8.68102 36 9 35.681 9 35.2875V19.1528C9 18.6232 9.55737 18.2787 10.0311 18.5155L13.1814 20.0907C13.382 20.191 13.618 20.191 13.8186 20.0907L16.9689 18.5155C17.4426 18.2787 18 18.6232 18 19.1528V26.2875C18 26.681 18.319 27 18.7125 27H26.2875C26.681 27 27 26.681 27 26.2875V18.7125C27 18.319 26.681 18 26.2875 18H18.7125C18.319 18 18 17.681 18 17.2875V9.71247C18 9.31898 18.319 9 18.7125 9H26.2875Z" fill="#4170E7"/>
</svg>
