<svg width="393" height="100" viewBox="0 0 393 100" fill="none" xmlns="http://www.w3.org/2000/svg">
<path d="M138.205 18C142.654 18 146.505 18.8333 149.758 20.5C153.078 22.1 155.667 24.4 157.526 27.4C159.385 30.4 160.315 33.9667 160.315 38.1C160.315 42.2333 159.385 45.8 157.526 48.8C155.667 51.8 153.078 54.1333 149.758 55.8C146.505 57.4 142.654 58.2 138.205 58.2H122.967V84H115V18H138.205ZM137.01 50.7C142.189 50.7 145.973 49.6333 148.364 47.5C150.754 45.3 151.949 42.1667 151.949 38.1C151.949 33.9667 150.754 30.8333 148.364 28.7C145.973 26.5667 142.189 25.5 137.01 25.5H122.967V50.7H137.01Z" fill="#ECEDF1"/>
<path d="M199.39 51.7C199.39 47.9667 198.394 45.1 196.403 43.1C194.411 41.0333 191.589 40 187.937 40C184.485 40 181.563 40.7667 179.173 42.3C176.783 43.7667 175.023 46.1667 173.895 49.5L167.421 45.5C168.749 41.7667 171.205 38.7667 174.791 36.5C178.376 34.1667 182.825 33 188.136 33C191.722 33 194.975 33.6333 197.896 34.9C200.818 36.1 203.108 37.9667 204.768 40.5C206.495 42.9667 207.358 46.1667 207.358 50.1V74.3C207.358 76.7 208.619 77.9 211.142 77.9C212.404 77.9 213.632 77.7333 214.827 77.4L214.429 83.7C213.101 84.3667 211.375 84.7 209.25 84.7C207.325 84.7 205.598 84.3333 204.071 83.6C202.544 82.8667 201.349 81.7667 200.486 80.3C199.623 78.7667 199.191 76.8667 199.191 74.6V73.6L201.183 73.9C200.386 76.5 199.025 78.6333 197.1 80.3C195.174 81.9 193.016 83.1 190.626 83.9C188.236 84.6333 185.879 85 183.555 85C180.634 85 177.911 84.5 175.388 83.5C172.865 82.5 170.84 81 169.313 79C167.853 76.9333 167.122 74.4 167.122 71.4C167.122 67.6667 168.35 64.6 170.807 62.2C173.33 59.7333 176.816 58.0667 181.264 57.2L200.984 53.3V59.9L184.949 63.2C181.696 63.8667 179.273 64.8 177.679 66C176.086 67.2 175.289 68.8667 175.289 71C175.289 73.0667 176.086 74.7667 177.679 76.1C179.339 77.3667 181.663 78 184.651 78C186.576 78 188.402 77.7667 190.128 77.3C191.921 76.7667 193.514 76 194.909 75C196.303 73.9333 197.398 72.6333 198.195 71.1C198.992 69.5 199.39 67.6333 199.39 65.5V51.7Z" fill="#ECEDF1"/>
<path d="M232.542 19.8V70.2C232.542 72.6667 233.24 74.5 234.634 75.7C236.028 76.9 237.821 77.5 240.012 77.5C241.937 77.5 243.597 77.1667 244.992 76.5C246.386 75.8333 247.647 74.9333 248.776 73.8L251.565 80.5C250.038 81.9 248.212 83 246.087 83.8C244.029 84.6 241.639 85 238.916 85C236.393 85 234.036 84.5667 231.845 83.7C229.654 82.7667 227.895 81.3333 226.567 79.4C225.305 77.4 224.641 74.8 224.575 71.6V22L232.542 19.8ZM250.668 34V40.9H214.616V34H250.668Z" fill="#ECEDF1"/>
<path d="M258.531 84V34H265.004L266.1 42.2C267.494 39.1333 269.519 36.8333 272.175 35.3C274.897 33.7667 278.184 33 282.035 33C282.898 33 283.827 33.0667 284.823 33.2C285.886 33.3333 286.782 33.6 287.512 34L286.118 41.3C285.388 41.0333 284.591 40.8333 283.728 40.7C282.865 40.5667 281.636 40.5 280.043 40.5C277.985 40.5 275.893 41.1 273.768 42.3C271.71 43.5 269.984 45.3333 268.59 47.8C267.195 50.2 266.498 53.2667 266.498 57V84H258.531Z" fill="#ECEDF1"/>
<path d="M314.261 33C318.975 33 323.125 34.0333 326.71 36.1C330.362 38.1667 333.217 41.1667 335.275 45.1C337.333 48.9667 338.362 53.6 338.362 59C338.362 64.4 337.333 69.0667 335.275 73C333.217 76.8667 330.362 79.8333 326.71 81.9C323.125 83.9667 318.975 85 314.261 85C309.613 85 305.463 83.9667 301.812 81.9C298.16 79.8333 295.305 76.8667 293.247 73C291.188 69.0667 290.159 64.4 290.159 59C290.159 53.6 291.188 48.9667 293.247 45.1C295.305 41.1667 298.16 38.1667 301.812 36.1C305.463 34.0333 309.613 33 314.261 33ZM314.261 39.9C310.875 39.9 307.986 40.6667 305.596 42.2C303.206 43.7333 301.347 45.9333 300.019 48.8C298.757 51.6 298.127 55 298.127 59C298.127 62.9333 298.757 66.3333 300.019 69.2C301.347 72.0667 303.206 74.2667 305.596 75.8C307.986 77.3333 310.875 78.1 314.261 78.1C317.647 78.1 320.535 77.3333 322.925 75.8C325.316 74.2667 327.142 72.0667 328.403 69.2C329.731 66.3333 330.395 62.9333 330.395 59C330.395 55 329.731 51.6 328.403 48.8C327.142 45.9333 325.316 43.7333 322.925 42.2C320.535 40.6667 317.647 39.9 314.261 39.9Z" fill="#ECEDF1"/>
<path d="M349.378 84V34H356.35L357.047 45.2L355.752 44.1C356.815 41.4333 358.242 39.3 360.035 37.7C361.827 36.0333 363.886 34.8333 366.209 34.1C368.6 33.3667 371.056 33 373.579 33C377.165 33 380.418 33.7 383.339 35.1C386.261 36.4333 388.585 38.5 390.311 41.3C392.104 44.1 393 47.6667 393 52V84H385.033V54.8C385.033 49.2667 383.837 45.4333 381.447 43.3C379.123 41.1 376.235 40 372.783 40C370.392 40 368.002 40.5667 365.612 41.7C363.222 42.8333 361.23 44.6667 359.636 47.2C358.109 49.7333 357.346 53.1333 357.346 57.4V84H349.378Z" fill="#ECEDF1"/>
<path d="M73 25C74.1046 25 75 24.1046 75 23V2C75 0.89543 74.1046 0 73 0H52C50.8954 0 50 0.895431 50 2V23C50 24.1046 49.1046 25 48 25H27C25.8954 25 25 24.1046 25 23V2C25 0.89543 24.1046 0 23 0H2C0.89543 0 0 0.895431 0 2V23C0 24.1046 0.895431 25 2 25H23C24.1046 25 25 25.8954 25 27V48C25 49.1046 24.1046 50 23 50H2C0.89543 50 0 50.8954 0 52V98C0 99.1046 0.895431 100 2 100H23C24.1046 100 25 99.1046 25 98V53.2361C25 51.7493 26.5646 50.7823 27.8944 51.4472L36.6056 55.8028C37.1686 56.0843 37.8314 56.0843 38.3944 55.8028L47.1056 51.4472C48.4354 50.7823 50 51.7493 50 53.2361V73C50 74.1046 50.8954 75 52 75H73C74.1046 75 75 74.1046 75 73V52C75 50.8954 74.1046 50 73 50H52C50.8954 50 50 49.1046 50 48V27C50 25.8954 50.8954 25 52 25H73Z" fill="#4170E7"/>
</svg>
