<svg width="75" height="100" viewBox="0 0 75 100" fill="none" xmlns="http://www.w3.org/2000/svg">
<path d="M73 25C74.1046 25 75 24.1046 75 23V2C75 0.89543 74.1046 0 73 0H52C50.8954 0 50 0.895431 50 2V23C50 24.1046 49.1046 25 48 25H27C25.8954 25 25 24.1046 25 23V2C25 0.89543 24.1046 0 23 0H2C0.89543 0 0 0.895431 0 2V23C0 24.1046 0.895431 25 2 25H23C24.1046 25 25 25.8954 25 27V48C25 49.1046 24.1046 50 23 50H2C0.89543 50 0 50.8954 0 52V98C0 99.1046 0.895431 100 2 100H23C24.1046 100 25 99.1046 25 98V53.2361C25 51.7493 26.5646 50.7823 27.8944 51.4472L36.6056 55.8028C37.1686 56.0843 37.8314 56.0843 38.3944 55.8028L47.1056 51.4472C48.4354 50.7823 50 51.7493 50 53.2361V73C50 74.1046 50.8954 75 52 75H73C74.1046 75 75 74.1046 75 73V52C75 50.8954 74.1046 50 73 50H52C50.8954 50 50 49.1046 50 48V27C50 25.8954 50.8954 25 52 25H73Z" fill="#4170E7"/>
</svg>
