<svg width="118" height="40" viewBox="0 0 118 40" fill="none" xmlns="http://www.w3.org/2000/svg">
<rect x="0.500244" y="0.500244" width="117" height="39" rx="19.5" fill="#19CB76" fill-opacity="0.1" stroke="#19CB76"/>
<path d="M55.1922 14.4402L51.2722 25.0002H49.2722L45.3522 14.4402H47.1762L49.6402 21.4642L50.2802 23.5602L50.9202 21.4802L53.3842 14.4402H55.1922ZM59.5982 25.1602C58.7982 25.1602 58.0942 24.9949 57.4862 24.6642C56.8782 24.3336 56.4036 23.8589 56.0622 23.2402C55.7316 22.6109 55.5662 21.8642 55.5662 21.0002C55.5662 20.1362 55.7316 19.3949 56.0622 18.7762C56.4036 18.1469 56.8729 17.6669 57.4702 17.3362C58.0676 17.0056 58.7449 16.8402 59.5022 16.8402C60.2809 16.8402 60.9422 17.0002 61.4862 17.3202C62.0302 17.6402 62.4462 18.0776 62.7342 18.6322C63.0222 19.1869 63.1662 19.8162 63.1662 20.5202C63.1662 20.7122 63.1609 20.8936 63.1502 21.0642C63.1396 21.2349 63.1236 21.3842 63.1022 21.5122H56.6702V20.2002H62.3502L61.5022 20.4562C61.5022 19.7309 61.3209 19.1762 60.9582 18.7922C60.5956 18.3976 60.0996 18.2002 59.4702 18.2002C59.0116 18.2002 58.6116 18.3069 58.2702 18.5202C57.9289 18.7336 57.6676 19.0536 57.4862 19.4802C57.3049 19.8962 57.2142 20.4082 57.2142 21.0162C57.2142 21.6136 57.3102 22.1202 57.5022 22.5362C57.6942 22.9522 57.9662 23.2669 58.3182 23.4802C58.6702 23.6936 59.0862 23.8002 59.5662 23.8002C60.0996 23.8002 60.5316 23.6989 60.8622 23.4962C61.1929 23.2936 61.4542 23.0109 61.6462 22.6482L63.0062 23.2882C62.8142 23.6722 62.5529 24.0082 62.2222 24.2962C61.9022 24.5736 61.5182 24.7869 61.0702 24.9362C60.6222 25.0856 60.1316 25.1602 59.5982 25.1602ZM65.3282 25.0002V17.0002H66.7842L66.9442 18.4402C67.1576 17.9176 67.4722 17.5229 67.8882 17.2562C68.3149 16.9789 68.8376 16.8402 69.4562 16.8402C69.6162 16.8402 69.7762 16.8562 69.9362 16.8882C70.0962 16.9096 70.2296 16.9469 70.3362 17.0002L70.0962 18.5042C69.9789 18.4616 69.8456 18.4296 69.6962 18.4082C69.5576 18.3762 69.3656 18.3602 69.1202 18.3602C68.7896 18.3602 68.4642 18.4509 68.1442 18.6322C67.8242 18.8029 67.5576 19.0642 67.3442 19.4162C67.1416 19.7682 67.0402 20.2162 67.0402 20.7602V25.0002H65.3282ZM72.8172 15.6562C72.4439 15.6562 72.1559 15.5656 71.9532 15.3842C71.7612 15.1922 71.6652 14.9256 71.6652 14.5842C71.6652 14.2429 71.7612 13.9816 71.9532 13.8002C72.1559 13.6189 72.4439 13.5282 72.8172 13.5282C73.1799 13.5282 73.4572 13.6189 73.6492 13.8002C73.8519 13.9816 73.9532 14.2429 73.9532 14.5842C73.9532 14.9256 73.8519 15.1922 73.6492 15.3842C73.4572 15.5656 73.1799 15.6562 72.8172 15.6562ZM73.6652 17.0002V25.0002H71.9532V17.0002H73.6652ZM79.7359 13.2882C80.0665 13.2882 80.3652 13.3256 80.6319 13.4002C80.9092 13.4642 81.1172 13.5549 81.2559 13.6722L80.9359 14.9042C80.8185 14.8296 80.6852 14.7762 80.5359 14.7442C80.3865 14.7016 80.2159 14.6802 80.0239 14.6802C79.5865 14.6802 79.2399 14.7816 78.9839 14.9842C78.7385 15.1869 78.6159 15.5176 78.6159 15.9762V17.1442L78.6639 17.5762V25.0002H76.9519V15.8482C76.9519 15.4429 77.0105 15.0802 77.1279 14.7602C77.2559 14.4402 77.4425 14.1736 77.6879 13.9602C77.9332 13.7362 78.2265 13.5709 78.5679 13.4642C78.9199 13.3469 79.3092 13.2882 79.7359 13.2882ZM81.2079 17.0002V18.3442H75.4479V17.0002H81.2079ZM83.6079 15.6562C83.2345 15.6562 82.9465 15.5656 82.7439 15.3842C82.5519 15.1922 82.4559 14.9256 82.4559 14.5842C82.4559 14.2429 82.5519 13.9816 82.7439 13.8002C82.9465 13.6189 83.2345 13.5282 83.6079 13.5282C83.9705 13.5282 84.2479 13.6189 84.4399 13.8002C84.6425 13.9816 84.7439 14.2429 84.7439 14.5842C84.7439 14.9256 84.6425 15.1922 84.4399 15.3842C84.2479 15.5656 83.9705 15.6562 83.6079 15.6562ZM84.4559 17.0002V25.0002H82.7439V17.0002H84.4559ZM90.6295 25.1602C89.8295 25.1602 89.1255 24.9949 88.5175 24.6642C87.9095 24.3336 87.4348 23.8589 87.0935 23.2402C86.7628 22.6109 86.5975 21.8642 86.5975 21.0002C86.5975 20.1362 86.7628 19.3949 87.0935 18.7762C87.4348 18.1469 87.9042 17.6669 88.5015 17.3362C89.0988 17.0056 89.7762 16.8402 90.5335 16.8402C91.3122 16.8402 91.9735 17.0002 92.5175 17.3202C93.0615 17.6402 93.4775 18.0776 93.7655 18.6322C94.0535 19.1869 94.1975 19.8162 94.1975 20.5202C94.1975 20.7122 94.1922 20.8936 94.1815 21.0642C94.1708 21.2349 94.1548 21.3842 94.1335 21.5122H87.7015V20.2002H93.3815L92.5335 20.4562C92.5335 19.7309 92.3522 19.1762 91.9895 18.7922C91.6268 18.3976 91.1308 18.2002 90.5015 18.2002C90.0428 18.2002 89.6428 18.3069 89.3015 18.5202C88.9602 18.7336 88.6988 19.0536 88.5175 19.4802C88.3362 19.8962 88.2455 20.4082 88.2455 21.0162C88.2455 21.6136 88.3415 22.1202 88.5335 22.5362C88.7255 22.9522 88.9975 23.2669 89.3495 23.4802C89.7015 23.6936 90.1175 23.8002 90.5975 23.8002C91.1308 23.8002 91.5628 23.6989 91.8935 23.4962C92.2242 23.2936 92.4855 23.0109 92.6775 22.6482L94.0375 23.2882C93.8455 23.6722 93.5842 24.0082 93.2535 24.2962C92.9335 24.5736 92.5495 24.7869 92.1015 24.9362C91.6535 25.0856 91.1628 25.1602 90.6295 25.1602ZM99.4315 25.1602C98.7702 25.1602 98.1675 24.9949 97.6235 24.6642C97.0902 24.3336 96.6688 23.8589 96.3595 23.2402C96.0502 22.6216 95.8955 21.8802 95.8955 21.0162C95.8955 20.1202 96.0608 19.3629 96.3915 18.7442C96.7222 18.1256 97.1648 17.6562 97.7195 17.3362C98.2742 17.0056 98.8822 16.8402 99.5435 16.8402C100.226 16.8402 100.802 17.0269 101.271 17.4002C101.741 17.7736 102.055 18.2589 102.215 18.8562L102.023 19.0322V13.4002H103.735V25.0002H102.215L102.087 22.8242L102.311 22.8402C102.237 23.3202 102.061 23.7362 101.783 24.0882C101.506 24.4296 101.159 24.6962 100.743 24.8882C100.338 25.0696 99.9008 25.1602 99.4315 25.1602ZM99.7995 23.7842C100.258 23.7842 100.653 23.6669 100.983 23.4322C101.314 23.1976 101.57 22.8669 101.751 22.4402C101.933 22.0136 102.023 21.5016 102.023 20.9042C102.023 20.3496 101.933 19.8749 101.751 19.4802C101.57 19.0749 101.314 18.7656 100.983 18.5522C100.663 18.3389 100.29 18.2322 99.8635 18.2322C99.1488 18.2322 98.5942 18.4776 98.1995 18.9682C97.8048 19.4589 97.6075 20.1362 97.6075 21.0002C97.6075 21.8642 97.7995 22.5469 98.1835 23.0482C98.5675 23.5389 99.1062 23.7842 99.7995 23.7842Z" fill="#ECEDF1"/>
<rect x="5.00024" y="5.00024" width="30" height="30" rx="15" fill="#19CB76"/>
<path d="M15.0002 20.9553L18.8013 25.0002L25.0002 15.0002" stroke="white" stroke-width="2"/>
</svg>
