<svg width="85" height="26" viewBox="0 0 85 26" fill="none" xmlns="http://www.w3.org/2000/svg">
<rect y="0.00012207" width="85" height="26" rx="4" fill="#EBDA3D" fill-opacity="0.8"/>
<path d="M19.1426 19H10.8574C9.41587 19 8.5255 17.3701 9.26715 16.089L13.4098 8.93317C14.1301 7.68894 15.8699 7.68894 16.5902 8.93317L20.7329 16.089C21.4745 17.3701 20.5841 19 19.1426 19Z" stroke="#141D25" stroke-width="1.2" stroke-linecap="round" stroke-linejoin="round"/>
<path d="M15 11V13.9122" stroke="#141D25" stroke-width="1.2" stroke-linecap="round" stroke-linejoin="round"/>
<path d="M15 16.8C14.6502 16.8 14.3667 16.5164 14.3667 16.1667C14.3667 15.8169 14.6502 15.5333 15 15.5333C15.3498 15.5333 15.6333 15.8169 15.6333 16.1667C15.6333 16.5164 15.3498 16.8 15 16.8Z" fill="#141D25" stroke="#141D25" stroke-width="0.1"/>
<path d="M30.9395 14.6075L31.5605 9.46887H33.0723L31.8887 18.0001H30.4004L29.5918 12.9611L28.8125 18.0001H27.3242L26.1523 9.46887H27.6582L28.2676 14.5724L28.9941 9.46887H30.1719L30.9395 14.6075ZM37.9941 18.0001C37.9551 17.922 37.9219 17.8322 37.8945 17.7306C37.8672 17.629 37.8438 17.5216 37.8242 17.4083C37.7344 17.506 37.6309 17.5978 37.5137 17.6837C37.3965 17.7697 37.2656 17.8458 37.1211 17.9122C36.9805 17.9747 36.8242 18.0236 36.6523 18.0587C36.4805 18.0978 36.2949 18.1173 36.0957 18.1173C35.7715 18.1173 35.4727 18.0704 35.1992 17.9767C34.9297 17.8829 34.6973 17.7521 34.502 17.5841C34.3066 17.4161 34.1543 17.2169 34.0449 16.9865C33.9355 16.7521 33.8809 16.4982 33.8809 16.2247C33.8809 15.5568 34.1289 15.0411 34.625 14.6779C35.125 14.3107 35.8691 14.1271 36.8574 14.1271H37.7656V13.7521C37.7656 13.4474 37.666 13.2072 37.4668 13.0314C37.2676 12.8517 36.9805 12.7618 36.6055 12.7618C36.2734 12.7618 36.0312 12.8341 35.8789 12.9786C35.7266 13.1193 35.6504 13.3087 35.6504 13.547H34.0215C34.0215 13.2775 34.0801 13.0216 34.1973 12.7794C34.3184 12.5372 34.4922 12.3243 34.7188 12.1407C34.9492 11.9572 35.2285 11.8126 35.5566 11.7072C35.8887 11.5978 36.2676 11.5431 36.6934 11.5431C37.0762 11.5431 37.4316 11.59 37.7598 11.6837C38.0918 11.7775 38.3789 11.9161 38.6211 12.0997C38.8633 12.2833 39.0527 12.5157 39.1895 12.797C39.3262 13.0743 39.3945 13.3966 39.3945 13.7638V16.4825C39.3945 16.8224 39.416 17.1036 39.459 17.3263C39.502 17.549 39.5645 17.7404 39.6465 17.9005V18.0001H37.9941ZM36.4414 16.8575C36.6055 16.8575 36.7578 16.838 36.8984 16.799C37.0391 16.7599 37.166 16.7091 37.2793 16.6466C37.3926 16.5841 37.4902 16.5138 37.5723 16.4357C37.6543 16.3536 37.7188 16.2716 37.7656 16.1896V15.0997H36.9336C36.6797 15.0997 36.4629 15.1251 36.2832 15.1759C36.1035 15.2228 35.957 15.2911 35.8438 15.381C35.7305 15.4669 35.6465 15.5724 35.5918 15.6974C35.5371 15.8185 35.5098 15.9513 35.5098 16.0958C35.5098 16.3146 35.5859 16.4962 35.7383 16.6407C35.8945 16.7853 36.1289 16.8575 36.4414 16.8575ZM45.793 11.5431C46.0391 11.5431 46.2656 11.5607 46.4727 11.5958C46.6836 11.6271 46.8535 11.6622 46.9824 11.7013L46.7422 13.3243C46.5273 13.2736 46.3066 13.2365 46.0801 13.213C45.8574 13.1857 45.6445 13.172 45.4414 13.172C44.9844 13.172 44.6172 13.2599 44.3398 13.4357C44.0664 13.6115 43.8613 13.8634 43.7246 14.1915V18.0001H42.0957V11.6603H43.6133L43.6895 12.6974C43.9473 12.338 44.2559 12.0568 44.6152 11.8536C44.9746 11.6466 45.3672 11.5431 45.793 11.5431ZM49.9238 11.6603L50.0234 12.5392C50.25 12.2228 50.5254 11.9786 50.8496 11.8068C51.1738 11.631 51.5332 11.5431 51.9277 11.5431C52.248 11.5431 52.541 11.59 52.8066 11.6837C53.0723 11.7775 53.3008 11.9279 53.4922 12.1349C53.6875 12.338 53.8379 12.6017 53.9434 12.9259C54.0527 13.2462 54.1074 13.6368 54.1074 14.0978V18.0001H52.4785V14.1212C52.4785 13.8712 52.4492 13.6661 52.3906 13.506C52.3359 13.3419 52.2559 13.213 52.1504 13.1193C52.0449 13.0255 51.918 12.9611 51.7695 12.9259C51.6211 12.8868 51.4531 12.8673 51.2656 12.8673C50.9883 12.8673 50.752 12.924 50.5566 13.0372C50.3613 13.1466 50.2031 13.299 50.082 13.4943V18.0001H48.4473V11.6603H49.9238ZM56.0879 11.6603H59.5391V16.6759H61.2559V18.0001H56.0879V16.6759H57.8926V12.9904H56.0879V11.6603ZM57.7754 10.0372C57.7754 9.91223 57.7969 9.797 57.8398 9.69153C57.8867 9.58215 57.9512 9.49036 58.0332 9.41614C58.1152 9.33801 58.2129 9.27747 58.3262 9.2345C58.4434 9.19153 58.5723 9.17004 58.7129 9.17004C59.002 9.17004 59.2305 9.25208 59.3984 9.41614C59.5703 9.57629 59.6562 9.78333 59.6562 10.0372C59.6562 10.2911 59.5703 10.5001 59.3984 10.6642C59.2305 10.8243 59.002 10.9044 58.7129 10.9044C58.5723 10.9044 58.4434 10.8829 58.3262 10.84C58.2129 10.797 58.1152 10.7384 58.0332 10.6642C57.9512 10.5861 57.8867 10.4943 57.8398 10.3888C57.7969 10.2794 57.7754 10.1622 57.7754 10.0372ZM64.3379 11.6603L64.4375 12.5392C64.6641 12.2228 64.9395 11.9786 65.2637 11.8068C65.5879 11.631 65.9473 11.5431 66.3418 11.5431C66.6621 11.5431 66.9551 11.59 67.2207 11.6837C67.4863 11.7775 67.7148 11.9279 67.9062 12.1349C68.1016 12.338 68.252 12.6017 68.3574 12.9259C68.4668 13.2462 68.5215 13.6368 68.5215 14.0978V18.0001H66.8926V14.1212C66.8926 13.8712 66.8633 13.6661 66.8047 13.506C66.75 13.3419 66.6699 13.213 66.5645 13.1193C66.459 13.0255 66.332 12.9611 66.1836 12.9259C66.0352 12.8868 65.8672 12.8673 65.6797 12.8673C65.4023 12.8673 65.166 12.924 64.9707 13.0372C64.7754 13.1466 64.6172 13.299 64.4961 13.4943V18.0001H62.8613V11.6603H64.3379ZM69.9043 14.7833C69.9043 14.3029 69.9629 13.8634 70.0801 13.465C70.2012 13.0665 70.373 12.7247 70.5957 12.4396C70.8184 12.1544 71.0879 11.9337 71.4043 11.7775C71.7207 11.6212 72.0781 11.5431 72.4766 11.5431C72.8477 11.5431 73.166 11.6056 73.4316 11.7306C73.6973 11.8556 73.9238 12.0333 74.1113 12.2638L74.1758 11.6603H75.6582V17.795C75.6582 18.2247 75.584 18.6075 75.4355 18.9435C75.291 19.2794 75.0859 19.5626 74.8203 19.7931C74.5586 20.0236 74.2422 20.1974 73.8711 20.3146C73.5039 20.4357 73.0977 20.4962 72.6523 20.4962C72.4609 20.4962 72.2559 20.4767 72.0371 20.4376C71.8184 20.3986 71.6016 20.338 71.3867 20.256C71.1719 20.174 70.9688 20.0685 70.7773 19.9396C70.5859 19.8146 70.4219 19.6642 70.2852 19.4884L71.0176 18.4982C71.2246 18.7325 71.459 18.9103 71.7207 19.0314C71.9824 19.1564 72.2656 19.2189 72.5703 19.2189C73.0273 19.2189 73.3828 19.0958 73.6367 18.8497C73.8945 18.6075 74.0234 18.2618 74.0234 17.8126V17.4493C73.832 17.6603 73.6074 17.8243 73.3496 17.9415C73.0957 18.0587 72.8008 18.1173 72.4648 18.1173C72.0703 18.1173 71.7148 18.0372 71.3984 17.8771C71.0859 17.713 70.8184 17.4884 70.5957 17.2032C70.373 16.9181 70.2012 16.5802 70.0801 16.1896C69.9629 15.795 69.9043 15.3673 69.9043 14.9064V14.7833ZM71.5391 14.9064C71.5391 15.172 71.5645 15.42 71.6152 15.6505C71.6699 15.8771 71.752 16.0763 71.8613 16.2482C71.9707 16.4161 72.1094 16.549 72.2773 16.6466C72.4453 16.7443 72.6445 16.7931 72.875 16.7931C73.1602 16.7931 73.3945 16.7384 73.5781 16.629C73.7656 16.5197 73.9141 16.3673 74.0234 16.172V13.4884C73.9141 13.2892 73.7656 13.1368 73.5781 13.0314C73.3945 12.922 73.1641 12.8673 72.8867 12.8673C72.6562 12.8673 72.457 12.9181 72.2891 13.0197C72.1211 13.1173 71.9805 13.254 71.8672 13.4298C71.7578 13.6017 71.6758 13.8048 71.6211 14.0392C71.5664 14.2697 71.5391 14.5177 71.5391 14.7833V14.9064Z" fill="#141D25"/>
</svg>
