<svg width="20" height="20" viewBox="0 0 20 20" fill="none" xmlns="http://www.w3.org/2000/svg">
<path fill-rule="evenodd" clip-rule="evenodd" d="M10.0079 0C4.47359 0 -0.000366211 4.58331 -0.000366211 10.2535C-0.000366211 14.786 2.86625 18.6226 6.84301 19.9805C7.34021 20.0826 7.52233 19.7599 7.52233 19.4885C7.52233 19.2508 7.50594 18.436 7.50594 17.587C4.72188 18.1983 4.14213 16.3647 4.14213 16.3647C3.69471 15.1764 3.03178 14.871 3.03178 14.871C2.12056 14.2429 3.09815 14.2429 3.09815 14.2429C4.10894 14.3108 4.63932 15.2954 4.63932 15.2954C5.53395 16.857 6.97556 16.4158 7.55552 16.1441C7.63828 15.482 7.90358 15.0237 8.18526 14.7691C5.96477 14.5314 3.62854 13.6487 3.62854 9.71017C3.62854 8.58976 4.02597 7.67309 4.65571 6.96018C4.55635 6.7056 4.2083 5.65289 4.75527 4.24394C4.75527 4.24394 5.60033 3.97228 7.50574 5.29644C8.32151 5.07199 9.16281 4.95782 10.0079 4.95685C10.853 4.95685 11.7144 5.07581 12.5099 5.29644C14.4155 3.97228 15.2605 4.24394 15.2605 4.24394C15.8075 5.65289 15.4593 6.7056 15.3599 6.96018C16.0062 7.67309 16.3873 8.58976 16.3873 9.71017C16.3873 13.6487 14.051 14.5143 11.814 14.7691C12.1786 15.0916 12.4933 15.7026 12.4933 16.6703C12.4933 18.0453 12.4769 19.1489 12.4769 19.4883C12.4769 19.7599 12.6592 20.0826 13.1562 19.9808C17.133 18.6224 19.9996 14.786 19.9996 10.2535C20.016 4.58331 15.5256 0 10.0079 0Z" fill="#ECEDF1"/>
</svg>
