<svg width="21" height="16" viewBox="0 0 21 16" fill="none" xmlns="http://www.w3.org/2000/svg">
<path d="M17.805 1.35132C20.1767 4.83814 21.3479 8.77119 20.9101 13.299C20.9082 13.3182 20.8983 13.3358 20.8825 13.3473C19.0865 14.666 17.3464 15.4663 15.6307 15.9971C15.6173 16.0011 15.603 16.0009 15.5898 15.9964C15.5766 15.992 15.5651 15.9835 15.5569 15.9721C15.1605 15.4207 14.8004 14.8393 14.4849 14.2287C14.4668 14.1928 14.4833 14.1495 14.5206 14.1353C15.0926 13.9198 15.6365 13.6615 16.1596 13.3557C16.2008 13.3316 16.2035 13.2725 16.1654 13.2442C16.0544 13.1617 15.9444 13.0751 15.8391 12.9885C15.8194 12.9725 15.7929 12.9693 15.7706 12.9801C12.3741 14.5484 8.65345 14.5484 5.2168 12.9801C5.19449 12.9701 5.16798 12.9735 5.14881 12.9893C5.04381 13.0759 4.93356 13.1617 4.82358 13.2442C4.78551 13.2725 4.78866 13.3316 4.83014 13.3557C5.3533 13.6557 5.8972 13.9198 6.4684 14.1363C6.50541 14.1505 6.523 14.1928 6.50462 14.2287C6.19592 14.8401 5.83578 15.4215 5.43205 15.9729C5.41446 15.9952 5.38559 16.0055 5.35829 15.9971C3.65073 15.4663 1.91062 14.666 0.114598 13.3473C0.0996351 13.3358 0.0888726 13.3174 0.0872976 13.2982C-0.278627 9.38172 0.467134 5.41613 3.18952 1.35053C3.19608 1.33977 3.20605 1.33137 3.2176 1.32638C4.55714 0.711648 5.99223 0.25939 7.49215 0.0011065C7.51945 -0.00309323 7.54675 0.00950595 7.56092 0.0336544C7.74625 0.361758 7.95808 0.782518 8.10141 1.12637C9.68244 0.884887 11.2882 0.884887 12.9023 1.12637C13.0456 0.789868 13.2501 0.361758 13.4346 0.0336544C13.4412 0.0216746 13.4514 0.0120771 13.4637 0.00623194C13.4761 0.000386826 13.49 -0.00140702 13.5034 0.0011065C15.0041 0.260177 16.4392 0.712435 17.7777 1.32638C17.7895 1.33137 17.7992 1.33977 17.805 1.35132ZM8.90518 8.79796C8.92172 7.64015 8.07752 6.68208 7.01781 6.68208C5.96676 6.68208 5.1307 7.63175 5.1307 8.79796C5.1307 9.96391 5.9833 10.9136 7.01781 10.9136C8.06912 10.9136 8.90518 9.96391 8.90518 8.79796ZM15.8829 8.79796C15.8995 7.64015 15.0553 6.68208 13.9958 6.68208C12.9445 6.68208 12.1085 7.63175 12.1085 8.79796C12.1085 9.96391 12.9611 10.9136 13.9958 10.9136C15.0553 10.9136 15.8829 9.96391 15.8829 8.79796Z" fill="#ECEDF1"/>
</svg>
