<svg width="22" height="16" viewBox="0 0 22 16" fill="none" xmlns="http://www.w3.org/2000/svg">
<path d="M18.305 1.35132C20.6767 4.83814 21.8479 8.77119 21.4101 13.299C21.4082 13.3182 21.3983 13.3358 21.3825 13.3473C19.5865 14.666 17.8464 15.4663 16.1307 15.9971C16.1173 16.0011 16.103 16.0009 16.0898 15.9964C16.0766 15.992 16.0651 15.9835 16.0569 15.9721C15.6605 15.4207 15.3004 14.8393 14.9849 14.2287C14.9668 14.1928 14.9833 14.1495 15.0206 14.1353C15.5926 13.9198 16.1365 13.6615 16.6596 13.3557C16.7008 13.3316 16.7035 13.2725 16.6654 13.2442C16.5544 13.1617 16.4444 13.0751 16.3391 12.9885C16.3194 12.9725 16.2929 12.9693 16.2706 12.9801C12.8741 14.5484 9.15345 14.5484 5.7168 12.9801C5.69449 12.9701 5.66798 12.9735 5.64881 12.9893C5.54381 13.0759 5.43356 13.1617 5.32358 13.2442C5.28551 13.2725 5.28866 13.3316 5.33014 13.3557C5.8533 13.6557 6.3972 13.9198 6.9684 14.1363C7.00541 14.1505 7.023 14.1928 7.00462 14.2287C6.69592 14.8401 6.33578 15.4215 5.93205 15.9729C5.91446 15.9952 5.88559 16.0055 5.85829 15.9971C4.15073 15.4663 2.41062 14.666 0.614598 13.3473C0.599635 13.3358 0.588873 13.3174 0.587298 13.2982C0.221373 9.38172 0.967134 5.41613 3.68952 1.35053C3.69608 1.33977 3.70605 1.33137 3.7176 1.32638C5.05714 0.711648 6.49223 0.25939 7.99215 0.0011065C8.01945 -0.00309323 8.04675 0.00950595 8.06092 0.0336544C8.24625 0.361758 8.45808 0.782518 8.60141 1.12637C10.1824 0.884887 11.7882 0.884887 13.4023 1.12637C13.5456 0.789868 13.7501 0.361758 13.9346 0.0336544C13.9412 0.0216746 13.9514 0.0120771 13.9637 0.00623194C13.9761 0.000386826 13.99 -0.00140702 14.0034 0.0011065C15.5041 0.260177 16.9392 0.712435 18.2777 1.32638C18.2895 1.33137 18.2992 1.33977 18.305 1.35132ZM9.40518 8.79796C9.42172 7.64015 8.57752 6.68208 7.51781 6.68208C6.46676 6.68208 5.6307 7.63175 5.6307 8.79796C5.6307 9.96391 6.4833 10.9136 7.51781 10.9136C8.56912 10.9136 9.40518 9.96391 9.40518 8.79796ZM16.3829 8.79796C16.3995 7.64015 15.5553 6.68208 14.4958 6.68208C13.4445 6.68208 12.6085 7.63175 12.6085 8.79796C12.6085 9.96391 13.4611 10.9136 14.4958 10.9136C15.5553 10.9136 16.3829 9.96391 16.3829 8.79796Z" fill="#ECEDF1"/>
</svg>
