<svg width="20" height="20" viewBox="0 0 20 20" fill="none" xmlns="http://www.w3.org/2000/svg">
<path fill-rule="evenodd" clip-rule="evenodd" d="M7.19958 1.19998C7.19958 0.537252 7.73684 0 8.39957 0C12.8178 0 16.3995 3.58167 16.3995 7.99989C16.3995 8.66262 15.8622 9.19987 15.1995 9.19987C14.5367 9.19987 13.9995 8.66262 13.9995 7.99989C13.9995 4.90712 11.4923 2.39997 8.39957 2.39997C7.73684 2.39997 7.19958 1.86272 7.19958 1.19998Z" fill="#ECEDF1"/>
<path fill-rule="evenodd" clip-rule="evenodd" d="M12.7998 18.8001C12.7998 19.4628 12.2626 20 11.5999 20C7.18166 20 3.59998 16.4184 3.59998 12.0002C3.59998 11.3374 4.13722 10.8002 4.79996 10.8002C5.46269 10.8002 5.99994 11.3374 5.99994 12.0002C5.99994 15.0929 8.50713 17.6001 11.5999 17.6001C12.2626 17.6001 12.7998 18.1373 12.7998 18.8001Z" fill="#ECEDF1"/>
<path fill-rule="evenodd" clip-rule="evenodd" d="M1.20047 12.7998C0.53774 12.7998 0.00048831 12.2625 0.000488281 11.5998C0.000488088 7.18158 3.58216 3.59991 8.00038 3.59991C8.66311 3.59991 9.20036 4.13718 9.20036 4.79991C9.20036 5.46264 8.66311 5.99989 8.00038 5.99989C4.90764 5.99989 2.40046 8.50704 2.40046 11.5998C2.40046 12.2625 1.8632 12.7998 1.20047 12.7998Z" fill="#ECEDF1"/>
<path fill-rule="evenodd" clip-rule="evenodd" d="M18.7996 7.19983C19.4623 7.19983 19.9996 7.73708 19.9996 8.39981C19.9996 12.818 16.4179 16.3997 11.9997 16.3997C11.3369 16.3997 10.7997 15.8625 10.7997 15.1997C10.7997 14.537 11.3369 13.9997 11.9997 13.9997C15.0924 13.9997 17.5996 11.4926 17.5996 8.39981C17.5996 7.73708 18.1368 7.19983 18.7996 7.19983Z" fill="#ECEDF1"/>
</svg>
