<svg width="21" height="20" viewBox="0 0 21 20" fill="none" xmlns="http://www.w3.org/2000/svg">
<path fill-rule="evenodd" clip-rule="evenodd" d="M7.69958 1.19998C7.69958 0.537252 8.23684 0 8.89957 0C13.3178 0 16.8995 3.58167 16.8995 7.99989C16.8995 8.66262 16.3622 9.19987 15.6995 9.19987C15.0367 9.19987 14.4995 8.66262 14.4995 7.99989C14.4995 4.90712 11.9923 2.39997 8.89957 2.39997C8.23684 2.39997 7.69958 1.86272 7.69958 1.19998Z" fill="#ECEDF1"/>
<path fill-rule="evenodd" clip-rule="evenodd" d="M13.2999 18.8001C13.2999 19.4628 12.7627 20 12.0999 20C7.68172 20 4.10004 16.4184 4.10004 12.0002C4.10004 11.3374 4.63728 10.8002 5.30002 10.8002C5.96275 10.8002 6.5 11.3374 6.5 12.0002C6.5 15.0929 9.00719 17.6001 12.0999 17.6001C12.7627 17.6001 13.2999 18.1373 13.2999 18.8001Z" fill="#ECEDF1"/>
<path fill-rule="evenodd" clip-rule="evenodd" d="M1.70047 12.7998C1.03774 12.7998 0.500488 12.2625 0.500488 11.5998C0.500488 7.18158 4.08216 3.59991 8.50038 3.59991C9.16311 3.59991 9.70036 4.13718 9.70036 4.79991C9.70036 5.46264 9.16311 5.99989 8.50038 5.99989C5.40764 5.99989 2.90046 8.50704 2.90046 11.5998C2.90046 12.2625 2.3632 12.7998 1.70047 12.7998Z" fill="#ECEDF1"/>
<path fill-rule="evenodd" clip-rule="evenodd" d="M19.2996 7.19983C19.9624 7.19983 20.4996 7.73708 20.4996 8.39981C20.4996 12.818 16.918 16.3997 12.4997 16.3997C11.837 16.3997 11.2997 15.8625 11.2997 15.1997C11.2997 14.537 11.837 13.9997 12.4997 13.9997C15.5925 13.9997 18.0997 11.4926 18.0997 8.39981C18.0997 7.73708 18.6369 7.19983 19.2996 7.19983Z" fill="#ECEDF1"/>
</svg>
