<svg width="21" height="20" viewBox="0 0 21 20" fill="none" xmlns="http://www.w3.org/2000/svg">
<path fill-rule="evenodd" clip-rule="evenodd" d="M10.5078 0C4.97353 0 0.499573 4.58331 0.499573 10.2535C0.499573 14.786 3.36619 18.6226 7.34295 19.9805C7.84015 20.0826 8.02227 19.7599 8.02227 19.4885C8.02227 19.2508 8.00588 18.436 8.00588 17.587C5.22182 18.1983 4.64207 16.3647 4.64207 16.3647C4.19465 15.1764 3.53172 14.871 3.53172 14.871C2.6205 14.2429 3.59809 14.2429 3.59809 14.2429C4.60888 14.3108 5.13926 15.2954 5.13926 15.2954C6.03389 16.857 7.4755 16.4158 8.05546 16.1441C8.13822 15.482 8.40352 15.0237 8.6852 14.7691C6.46471 14.5314 4.12848 13.6487 4.12848 9.71017C4.12848 8.58976 4.52591 7.67309 5.15565 6.96018C5.05629 6.7056 4.70824 5.65289 5.25521 4.24394C5.25521 4.24394 6.10026 3.97228 8.00568 5.29644C8.82145 5.07199 9.66275 4.95782 10.5078 4.95685C11.3529 4.95685 12.2143 5.07581 13.0098 5.29644C14.9154 3.97228 15.7605 4.24394 15.7605 4.24394C16.3075 5.65289 15.9592 6.7056 15.8598 6.96018C16.5062 7.67309 16.8872 8.58976 16.8872 9.71017C16.8872 13.6487 14.551 14.5143 12.3139 14.7691C12.6786 15.0916 12.9932 15.7026 12.9932 16.6703C12.9932 18.0453 12.9768 19.1489 12.9768 19.4883C12.9768 19.7599 13.1592 20.0826 13.6561 19.9808C17.6329 18.6224 20.4995 14.786 20.4995 10.2535C20.5159 4.58331 16.0256 0 10.5078 0Z" fill="#ECEDF1"/>
</svg>
