<svg width="160" height="16" viewBox="0 0 160 16" fill="none" xmlns="http://www.w3.org/2000/svg">
<path d="M23.2588 13.1159V0.957428C23.2588 0.899502 23.2354 0.843947 23.1936 0.802985C23.1519 0.762023 23.0954 0.739014 23.0366 0.739014H21.2588C21.1999 0.739014 21.1434 0.762023 21.1017 0.802985C21.06 0.843947 21.0366 0.899502 21.0366 0.957428V15.0816C21.0366 15.1396 21.06 15.1951 21.1017 15.2361C21.1434 15.277 21.1999 15.3001 21.2588 15.3001H30.4439C30.5027 15.3001 30.5592 15.277 30.6009 15.2361C30.6426 15.1951 30.6659 15.1396 30.6659 15.0816V13.3343C30.6659 13.2764 30.6426 13.2208 30.6009 13.1799C30.5592 13.1389 30.5027 13.1159 30.4439 13.1159H23.2588Z" fill="#68737E"/>
<path d="M46.2215 0.739014H35.555C35.4324 0.739014 35.333 0.836801 35.333 0.957428V2.70475C35.333 2.82538 35.4324 2.92316 35.555 2.92316H46.2215C46.3442 2.92316 46.4436 2.82538 46.4436 2.70475V0.957428C46.4436 0.836801 46.3442 0.739014 46.2215 0.739014Z" fill="#68737E"/>
<path d="M46.2215 13.1159H35.555C35.4324 13.1159 35.333 13.2137 35.333 13.3343V15.0816C35.333 15.2023 35.4324 15.3001 35.555 15.3001H46.2215C46.3442 15.3001 46.4436 15.2023 46.4436 15.0816V13.3343C46.4436 13.2137 46.3442 13.1159 46.2215 13.1159Z" fill="#68737E"/>
<path d="M46.2215 6.9187H35.555C35.4324 6.9187 35.333 7.01648 35.333 7.13712V8.88444C35.333 9.00506 35.4324 9.10286 35.555 9.10286H46.2215C46.3442 9.10286 46.4436 9.00506 46.4436 8.88444V7.13712C46.4436 7.01648 46.3442 6.9187 46.2215 6.9187Z" fill="#68737E"/>
<path d="M124.428 0.739014H113.761C113.638 0.739014 113.539 0.836801 113.539 0.957428V2.70475C113.539 2.82538 113.638 2.92316 113.761 2.92316H124.428C124.55 2.92316 124.65 2.82538 124.65 2.70475V0.957428C124.65 0.836801 124.55 0.739014 124.428 0.739014Z" fill="#68737E"/>
<path d="M124.428 13.1159H113.761C113.638 13.1159 113.539 13.2137 113.539 13.3343V15.0816C113.539 15.2023 113.638 15.3001 113.761 15.3001H124.428C124.55 15.3001 124.65 15.2023 124.65 15.0816V13.3343C124.65 13.2137 124.55 13.1159 124.428 13.1159Z" fill="#68737E"/>
<path d="M124.428 6.9187H113.761C113.638 6.9187 113.539 7.01648 113.539 7.13712V8.88444C113.539 9.00506 113.638 9.10286 113.761 9.10286H124.428C124.55 9.10286 124.65 9.00506 124.65 8.88444V7.13712C124.65 7.01648 124.55 6.9187 124.428 6.9187Z" fill="#68737E"/>
<path d="M81.5533 0.739014H79.7759C79.6533 0.739014 79.5537 0.836801 79.5537 0.957428V15.0816C79.5537 15.2023 79.6533 15.3001 79.7759 15.3001H81.5533C81.6761 15.3001 81.7755 15.2023 81.7755 15.0816V0.957428C81.7755 0.836801 81.6761 0.739014 81.5533 0.739014Z" fill="#68737E"/>
<path d="M77.1088 6.9304H71.4051V0.960357C71.4051 0.902432 71.3819 0.846876 71.3401 0.805915C71.2984 0.764953 71.2419 0.741943 71.1831 0.741943H69.4052C69.3464 0.741943 69.2898 0.764953 69.2481 0.805915C69.2064 0.846876 69.1831 0.902432 69.1831 0.960357V6.9304H67.1832C67.1246 6.93038 67.0685 6.95301 67.027 6.99334C66.9856 7.03367 66.9616 7.08848 66.9609 7.14588V8.89323C66.9609 8.95115 66.9844 9.0067 67.0259 9.04766C67.0676 9.08862 67.1242 9.11163 67.1832 9.11163H69.1831V15.0817C69.1831 15.1396 69.2064 15.1951 69.2481 15.2361C69.2898 15.2771 69.3464 15.3001 69.4052 15.3001H71.1831C71.2419 15.3001 71.2984 15.2771 71.3401 15.2361C71.3819 15.1951 71.4051 15.1396 71.4051 15.0817V9.11163H77.1088C77.1676 9.11163 77.2242 9.08862 77.2659 9.04766C77.3076 9.0067 77.3311 8.95115 77.3311 8.89323V7.14588C77.3302 7.08848 77.3065 7.03367 77.2647 6.99334C77.2232 6.95301 77.1672 6.93038 77.1088 6.9304Z" fill="#68737E"/>
<path d="M12.8679 9.10433H15.333C15.3906 9.10437 15.4461 9.08237 15.4876 9.04296C15.529 9.00356 15.5533 8.94986 15.5552 8.89321V7.14587C15.5552 7.08795 15.5318 7.0324 15.4901 6.99144C15.4484 6.95048 15.3919 6.92747 15.333 6.92747H11.8783L9.15687 0.912289C9.13382 0.861146 9.0963 0.81761 9.04875 0.786881C9.00119 0.756153 8.94564 0.739536 8.88874 0.739014H6.66658C6.60943 0.739256 6.55355 0.755743 6.50573 0.786487C6.45788 0.817233 6.4201 0.860922 6.39696 0.912289L3.67704 6.92019H0.222339C0.192523 6.92016 0.163009 6.92603 0.135554 6.93748C0.108099 6.94891 0.0832656 6.96565 0.0625312 6.98671C0.0417967 7.00775 0.0255856 7.03271 0.0148642 7.06005C0.00414263 7.08741 -0.00087036 7.11658 0.000123498 7.14587V8.89321C0.000123498 8.95113 0.0235353 9.00668 0.0652087 9.04764C0.106882 9.0886 0.163404 9.11161 0.222339 9.11161H2.68745L0.0208635 15.0001C0.00742886 15.0329 0.00229261 15.0684 0.00589511 15.1036C0.00949757 15.1388 0.021731 15.1725 0.0415459 15.202C0.0613606 15.2315 0.0881643 15.2559 0.119655 15.2729C0.151145 15.29 0.186382 15.2993 0.222339 15.3001H2.20598C2.26339 15.3001 2.31958 15.2837 2.3677 15.253C2.41582 15.2222 2.45383 15.1784 2.47708 15.1268L7.77766 3.42552L13.0782 15.1268C13.1015 15.1784 13.1395 15.2222 13.1876 15.253C13.2357 15.2837 13.2919 15.3001 13.3493 15.3001H15.333C15.37 15.3001 15.4064 15.291 15.439 15.2736C15.4715 15.2562 15.4991 15.2311 15.5193 15.2006C15.5395 15.1701 15.5515 15.1351 15.5545 15.0988C15.5574 15.0625 15.551 15.0261 15.5359 14.9928L12.8679 9.10433Z" fill="#68737E"/>
<path d="M63.2984 3.96283C62.8867 3.00734 62.198 2.19209 61.3181 1.6188C60.4381 1.0455 59.4059 0.739518 58.3504 0.739014H52.0912C52.0324 0.739014 51.9758 0.762023 51.9341 0.802985C51.8924 0.843947 51.8691 0.899502 51.8691 0.957428V2.70475C51.8691 2.76268 51.8924 2.81823 51.9341 2.85919C51.9758 2.90015 52.0324 2.92316 52.0912 2.92316H58.3504C58.7712 2.92193 59.188 3.00465 59.5755 3.16634C60.1377 3.40058 60.6189 3.79003 60.9606 4.28755C61.3133 4.79766 61.5007 5.40067 61.4984 6.0174C61.4988 6.43105 61.4147 6.84058 61.251 7.2216C61.0117 7.77451 60.615 8.24776 60.1087 8.58451C59.5899 8.92973 58.9771 9.1134 58.3504 9.11161H52.0912C52.0324 9.11161 51.9758 9.13462 51.9341 9.17558C51.8924 9.21654 51.8691 9.27211 51.8691 9.33003V15.0816C51.8691 15.1396 51.8924 15.1951 51.9341 15.2361C51.9758 15.277 52.0324 15.3001 52.0912 15.3001H53.8691C53.9279 15.3001 53.9844 15.277 54.0261 15.2361C54.0679 15.1951 54.0911 15.1396 54.0911 15.0816V11.2958H58.3504C59.7745 11.2954 61.1403 10.7391 62.1472 9.74935C63.1543 8.75953 63.7201 7.41719 63.7206 6.0174C63.7206 5.31172 63.5772 4.61314 63.2984 3.96283Z" fill="#68737E"/>
<path d="M141.016 8.96892C141.615 8.09737 141.935 7.06924 141.933 6.0174C141.933 5.32418 141.794 4.6377 141.524 3.99723C141.255 3.35673 140.859 2.77476 140.36 2.28459C139.862 1.79441 139.27 1.40561 138.618 1.14042C137.966 0.87522 137.268 0.738821 136.563 0.739014H130.304C130.245 0.739014 130.188 0.762023 130.147 0.802985C130.105 0.843947 130.082 0.899502 130.082 0.957428V2.70475C130.082 2.76269 130.105 2.81823 130.147 2.85919C130.188 2.90015 130.245 2.92316 130.304 2.92316H136.563C136.984 2.92193 137.4 3.00466 137.788 3.16634C138.359 3.4022 138.846 3.79864 139.189 4.30586C139.532 4.8131 139.714 5.40854 139.714 6.0174C139.715 6.43096 139.631 6.84049 139.468 7.2216C139.228 7.7742 138.832 8.24734 138.326 8.58452C137.806 8.92978 137.193 9.11343 136.566 9.11161H130.304C130.245 9.11161 130.188 9.13462 130.147 9.17558C130.105 9.21654 130.082 9.27211 130.082 9.33003V15.0817C130.082 15.1396 130.105 15.1951 130.147 15.2361C130.188 15.277 130.245 15.3001 130.304 15.3001H132.081C132.14 15.3001 132.197 15.277 132.239 15.2361C132.28 15.1951 132.304 15.1396 132.304 15.0817V11.2958H136.563C136.935 11.2959 137.306 11.2578 137.669 11.1822L139.477 15.1705C139.494 15.2092 139.522 15.242 139.559 15.265C139.595 15.2881 139.637 15.3002 139.68 15.3001H141.711C141.748 15.3001 141.784 15.291 141.817 15.2736C141.849 15.2562 141.877 15.2311 141.897 15.2006C141.917 15.1701 141.929 15.1351 141.932 15.0988C141.935 15.0625 141.929 15.0261 141.914 14.9928L139.766 10.2518C140.252 9.89589 140.675 9.46225 141.016 8.96892Z" fill="#68737E"/>
<path d="M108.656 0.738891H97.9896C97.9308 0.738891 97.8743 0.761903 97.8325 0.802862C97.7908 0.843824 97.7676 0.899379 97.7676 0.957305V2.70463C97.7676 2.76256 97.7908 2.81811 97.8325 2.85907C97.8743 2.90003 97.9308 2.92304 97.9896 2.92304H105.575L102.625 6.62448C102.603 6.65217 102.589 6.68538 102.585 6.72033C102.582 6.75529 102.588 6.79062 102.603 6.82237C102.618 6.85412 102.642 6.88103 102.672 6.90008C102.703 6.91915 102.737 6.92959 102.773 6.93024H105.019C105.086 6.93022 105.153 6.91511 105.214 6.88612C105.274 6.8571 105.327 6.81493 105.369 6.76279L108.776 2.47894C108.843 2.40404 108.881 2.309 108.886 2.20956V0.957305C108.886 0.927999 108.88 0.898992 108.868 0.872005C108.856 0.84502 108.839 0.820611 108.818 0.800232C108.797 0.77985 108.771 0.763917 108.743 0.753379C108.716 0.742841 108.686 0.737914 108.656 0.738891Z" fill="#68737E"/>
<path d="M108.656 13.1158H100.303L103.256 9.42017C103.278 9.39245 103.292 9.35926 103.296 9.32431C103.3 9.28936 103.293 9.25402 103.278 9.22227C103.263 9.19052 103.238 9.16361 103.209 9.14454C103.178 9.12549 103.144 9.11505 103.108 9.11438H100.856C100.788 9.1142 100.721 9.12919 100.661 9.15821C100.6 9.18723 100.547 9.22951 100.505 9.28185L97.1212 13.5264C97.0599 13.6032 97.0266 13.6981 97.0264 13.7958V15.0815C97.0264 15.1394 97.0499 15.195 97.0916 15.2359C97.1333 15.2769 97.1898 15.2999 97.2486 15.2999H108.656C108.715 15.2999 108.771 15.2769 108.813 15.2359C108.855 15.195 108.878 15.1394 108.878 15.0815V13.3342C108.878 13.3055 108.872 13.2771 108.861 13.2506C108.85 13.2241 108.833 13.2 108.813 13.1797C108.792 13.1594 108.768 13.1434 108.741 13.1324C108.714 13.1214 108.685 13.1158 108.656 13.1158Z" fill="#68737E"/>
<path d="M157.97 9.09851C157.917 9.09876 157.867 9.11713 157.827 9.15038C157.786 9.18366 157.759 9.22973 157.75 9.28052C157.688 9.62142 157.595 9.95617 157.472 10.2808C157.142 11.1857 156.535 11.9679 155.734 12.5204C154.944 13.0488 154.008 13.3263 153.053 13.3154C152.409 13.319 151.771 13.1963 151.176 12.9543C150.307 12.594 149.575 11.9747 149.083 11.1836C148.721 10.5997 148.475 9.95409 148.357 9.28052C148.348 9.22973 148.321 9.18366 148.281 9.15038C148.241 9.11713 148.19 9.09876 148.138 9.09851H146.335C146.303 9.09842 146.271 9.10503 146.242 9.11787C146.214 9.13073 146.188 9.14951 146.167 9.17295C146.146 9.19641 146.131 9.22399 146.121 9.25384C146.112 9.2837 146.11 9.31514 146.114 9.34604C146.2 9.92738 146.349 10.498 146.558 11.0482C147.035 12.3636 147.917 13.4997 149.083 14.2978C150.248 15.0959 151.638 15.516 153.059 15.4995C153.998 15.5027 154.928 15.322 155.795 14.9681C157.089 14.4312 158.18 13.5109 158.916 12.3354C159.483 11.4231 159.851 10.4052 159.998 9.34604C160.002 9.31514 159.999 9.2837 159.99 9.25384C159.981 9.22399 159.966 9.19641 159.945 9.17295C159.924 9.14951 159.898 9.13073 159.869 9.11787C159.84 9.10503 159.809 9.09842 159.777 9.09851H157.97Z" fill="#68737E"/>
<path d="M148.133 6.91435C148.186 6.91437 148.237 6.89611 148.277 6.86279C148.317 6.82947 148.344 6.78325 148.353 6.73232C148.415 6.38508 148.509 6.04398 148.633 5.71306C148.964 4.81181 149.569 4.03251 150.366 3.48085C151.157 2.95322 152.093 2.67582 153.049 2.68581C153.692 2.68215 154.33 2.80493 154.924 3.04693C155.795 3.40635 156.529 4.02511 157.024 4.81609C157.386 5.40387 157.633 6.05344 157.751 6.73086C157.76 6.78166 157.787 6.82773 157.827 6.861C157.867 6.89425 157.918 6.91263 157.97 6.91289H159.772C159.803 6.91292 159.835 6.90631 159.864 6.89349C159.893 6.88065 159.919 6.8619 159.94 6.83848C159.961 6.81507 159.976 6.78751 159.986 6.75766C159.995 6.72779 159.998 6.69633 159.994 6.66534C159.909 6.08004 159.76 5.50544 159.549 4.95152C159.058 3.62955 158.166 2.48788 156.992 1.6811C155.831 0.901693 154.455 0.489668 153.049 0.500197C152.111 0.496456 151.182 0.676646 150.316 1.03022C149.021 1.5668 147.93 2.48846 147.196 3.66578C146.626 4.58125 146.258 5.60333 146.113 6.6668C146.109 6.6977 146.111 6.72914 146.12 6.75901C146.129 6.78885 146.145 6.81643 146.166 6.83989C146.187 6.86333 146.213 6.88213 146.242 6.89497C146.271 6.90781 146.302 6.91442 146.333 6.91435H148.133Z" fill="#68737E"/>
</svg>
