<svg width="102" height="22" viewBox="0 0 102 22" fill="none" xmlns="http://www.w3.org/2000/svg">
<path d="M32.192 3.2821C31.0212 3.2821 29.8928 3.43342 29.4333 3.56134C28.7645 3.75477 28.5977 4.05584 28.4718 4.67982L25.8178 17.2764C25.7753 17.5338 25.7344 17.7491 25.7344 17.9644C25.7344 18.5884 26.1317 18.9955 26.7793 18.9955C27.4906 18.9955 27.7833 18.5228 27.9289 17.7912L28.6811 14.2018C29.2028 14.2657 29.8928 14.3312 30.8756 14.3312C35.2024 14.3312 37.8973 11.9242 37.8973 8.29111C37.8973 5.10881 35.7438 3.2821 32.192 3.2821ZM30.7709 12.2674C30.1021 12.2674 29.5789 12.2456 29.0997 12.1816L30.4995 5.49568C30.9377 5.43172 31.5868 5.34436 32.2557 5.34436C34.5548 5.34436 35.7256 6.46285 35.7256 8.31139C35.7241 10.6763 34.0513 12.2674 30.7709 12.2674Z" fill="#49525A"/>
<path d="M100.279 14.8461C99.9237 14.8461 99.6932 15.0613 99.2549 15.5558C98.4815 16.3733 98.0007 16.8241 97.3956 16.8241C96.8527 16.8241 96.56 16.3733 96.56 15.6416C96.56 15.2329 96.6434 14.7384 96.748 14.2018L97.5215 10.461H99.8418C100.573 10.461 101.013 10.0305 101.013 9.25675C101.013 8.82621 100.741 8.50486 100.115 8.50486H97.9385L98.3146 6.76395C98.3571 6.50656 98.3981 6.26945 98.3981 6.05417C98.3981 5.45203 98.0007 5.02148 97.3531 5.02148C96.6631 5.02148 96.3507 5.49415 96.2036 6.22577L95.7228 8.50486H94.7401C93.9879 8.50486 93.5496 8.9354 93.5496 9.70914C93.5496 10.1397 93.8423 10.461 94.4686 10.461H95.3255L94.552 14.1581C94.4686 14.5668 94.364 15.2329 94.364 15.9209C94.364 17.6618 95.2421 18.93 97.1226 18.93C98.21 18.93 99.17 18.3716 99.9025 17.7039C100.614 17.0596 101.135 16.2641 101.135 15.7477C101.135 15.2548 100.759 14.8461 100.279 14.8461Z" fill="#49525A"/>
<path d="M52.2122 4.55039C52.2122 3.92641 51.7936 3.5177 51.146 3.5177C50.456 3.5177 50.1436 3.99037 49.9965 4.72198L47.3849 17.211C47.3227 17.4683 47.2803 17.6836 47.2803 17.8989C47.2803 18.5229 47.6989 18.93 48.3252 18.93C49.0365 18.93 49.3489 18.4574 49.496 17.7257L52.1075 5.23833C52.15 4.97937 52.2122 4.76566 52.2122 4.55039Z" fill="#49525A"/>
<path d="M89.5154 8.28954C86.1714 8.28954 83.8935 11.7074 83.8935 14.9537C83.8935 15.0145 83.895 15.0753 83.8965 15.1346C83.3718 15.9536 82.7015 16.8022 82.2419 16.8022C81.9083 16.8022 81.7824 16.4793 81.7824 15.9848C81.7824 15.3826 81.9492 14.3718 82.1373 13.4904L83.8723 5.23515C83.9147 4.97776 83.9557 4.76249 83.9557 4.54721C83.9557 3.92323 83.5583 3.51453 82.9108 3.51453C82.1995 3.51453 81.9083 3.98719 81.7612 4.71881L80.8209 9.18963C80.3189 8.65301 79.5864 8.28642 78.4793 8.28642C76.2591 8.28642 74.0251 10.0445 73.1546 12.7416C72.1961 15.2906 71.3393 16.7991 70.6629 16.7991C70.4127 16.7991 70.2655 16.5838 70.2655 16.2188C70.2655 15.144 70.8509 12.5217 71.1012 11.2534C71.1846 10.7808 71.2271 10.5873 71.2271 10.3081C71.2271 9.36279 69.7014 8.2443 67.7162 8.2443C65.4201 8.2443 63.3409 9.74029 62.299 11.9617C60.7505 14.7758 59.3295 16.7991 58.6258 16.7991C58.3119 16.7991 58.2072 16.3904 58.1238 16.0035L57.6036 13.0412L60.8006 10.3549C61.0933 10.0975 61.4694 9.73093 61.4694 9.25827C61.4694 8.67797 61.0933 8.2911 60.5291 8.2911C60.1105 8.2911 59.7557 8.54849 59.4008 8.84956L54.5948 12.9335L56.2038 5.23827C56.2463 4.98088 56.3085 4.76561 56.3085 4.55033C56.3085 3.92635 55.8899 3.51765 55.2423 3.51765C54.5523 3.51765 54.2399 3.99031 54.0928 4.72193L51.4812 17.2109C51.419 17.4683 51.3766 17.6836 51.3766 17.8988C51.3766 18.5228 51.7952 18.93 52.4215 18.93C53.1328 18.93 53.4452 18.4573 53.5923 17.7257L53.9275 16.1143L55.8914 14.481L56.3722 16.9738C56.5602 17.9628 57.0622 18.93 58.3574 18.93C59.6465 18.93 60.6611 17.7194 61.6772 16.0831C61.985 17.7974 63.171 18.93 64.8165 18.93C66.468 18.93 67.5964 17.9191 68.3274 16.5651V16.6088C68.3274 18.0065 69.0174 18.93 70.2291 18.93C71.3256 18.93 72.2356 18.2498 73.0485 16.8053C73.5095 18.0642 74.5408 18.93 75.9754 18.93C77.6679 18.93 78.8797 17.877 79.6531 16.4153V16.5448C79.6531 18.0923 80.4054 18.9315 81.6384 18.9315C82.7273 18.9315 83.6524 18.281 84.4425 17.2234C85.0431 18.281 86.1198 18.9315 87.5742 18.9315C90.9183 18.9315 93.1962 15.5137 93.1962 12.2456C93.1947 9.94465 91.8358 8.28954 89.5154 8.28954ZM68.6807 12.6543C68.0741 15.3405 66.7789 16.8677 65.3154 16.8677C64.3327 16.8677 63.7898 16.094 63.7898 14.9334C63.7898 12.6543 65.3988 10.2036 67.5509 10.2036C68.1984 10.2036 68.7004 10.397 69.1387 10.6763L68.6807 12.6543ZM80.3204 11.5155C79.6516 14.676 78.126 16.8677 76.4547 16.8677C75.5356 16.8677 74.9912 16.1361 74.9912 14.9334C74.9912 12.634 76.5381 10.2473 78.6067 10.2473C79.4014 10.2473 80.0065 10.5265 80.4463 10.8915L80.3204 11.5155ZM87.8229 16.8677C86.6112 16.8677 86.1092 15.9645 86.1092 14.8257C86.1092 12.7401 87.509 10.3549 89.2652 10.3549C90.477 10.3549 90.9789 11.2581 90.9789 12.3969C90.9789 14.5028 89.5791 16.8677 87.8229 16.8677Z" fill="#49525A"/>
<path d="M43.1007 8.28955C39.7567 8.28955 37.4788 11.7074 37.4788 14.9537C37.4788 17.2749 38.8376 18.93 41.1565 18.93C44.5005 18.93 46.7784 15.5121 46.7784 12.244C46.7784 9.94466 45.4196 8.28955 43.1007 8.28955ZM41.4082 16.8677C40.1965 16.8677 39.6945 15.9645 39.6945 14.8257C39.6945 12.7401 41.0943 10.3549 42.8505 10.3549C44.0622 10.3549 44.5642 11.2581 44.5642 12.3969C44.5627 14.5028 43.1629 16.8677 41.4082 16.8677Z" fill="#49525A"/>
<path d="M11.1904 4.61434C13.3204 4.61434 15.047 3.58138 15.047 2.30717C15.047 1.03295 13.3204 0 11.1904 0C9.06042 0 7.33374 1.03295 7.33374 2.30717C7.33374 3.58138 9.06042 4.61434 11.1904 4.61434Z" fill="#49525A"/>
<path d="M11.1904 21.9984C13.3204 21.9984 15.047 20.9654 15.047 19.6912C15.047 18.417 13.3204 17.384 11.1904 17.384C9.06042 17.384 7.33374 18.417 7.33374 19.6912C7.33374 20.9654 9.06042 21.9984 11.1904 21.9984Z" fill="#49525A"/>
<path d="M5.81586 7.80804C6.88084 5.91073 6.87393 3.85582 5.80042 3.21829C4.72691 2.58075 2.99331 3.602 1.92833 5.49931C0.863341 7.39662 0.870253 9.45152 1.94377 10.0891C3.01728 10.7266 4.75087 9.70535 5.81586 7.80804Z" fill="#49525A"/>
<path d="M20.4507 16.499C21.5157 14.6017 21.5093 12.5471 20.4366 11.91C19.3638 11.2729 17.6308 12.2945 16.5658 14.1918C15.5008 16.0891 15.5071 18.1437 16.5799 18.7808C17.6527 19.4179 19.3857 18.3963 20.4507 16.499Z" fill="#49525A"/>
<path d="M5.80091 18.7802C6.87442 18.1427 6.88133 16.0878 5.81635 14.1905C4.75136 12.2932 3.01777 11.2719 1.94425 11.9095C0.870742 12.547 0.863829 14.6019 1.92881 16.4992C2.9938 18.3965 4.72739 19.4178 5.80091 18.7802Z" fill="#49525A"/>
<path d="M20.4375 10.0895C21.5103 9.45239 21.5166 7.39784 20.4517 5.50053C19.3867 3.60322 17.6537 2.58162 16.5809 3.21873C15.5081 3.85584 15.5018 5.91039 16.5668 7.8077C17.6317 9.70501 19.3647 10.7266 20.4375 10.0895Z" fill="#49525A"/>
</svg>
