<svg width="71" height="30" viewBox="0 0 71 30" fill="none" xmlns="http://www.w3.org/2000/svg">
<path d="M15.3745 9.72152V7.5038C15.3745 6.69873 14.8918 5.98481 14.1525 5.66582L0.499512 0V1.23038L12.6741 6.28861C13.0965 6.4557 13.0965 7.06329 12.6741 7.23038L0.499512 12.2886V17.2253L7.83141 14.1722L12.659 16.1772C13.0814 16.3443 13.0814 16.9519 12.659 17.119L0.499512 22.1772V30L14.1525 24.3342C14.8918 24.0304 15.3745 23.3013 15.3745 22.4962V17.4076C15.3745 16.6025 14.8918 15.8886 14.1525 15.5696L9.30985 13.5646L14.1525 11.5595C14.8918 11.2557 15.3745 10.5266 15.3745 9.72152Z" fill="#68737E"/>
<path d="M26.2518 7.50385L27.338 11.7722L28.56 7.50385H29.7216L30.8682 11.7722L31.9996 7.50385H32.8596L31.3962 12.6532H30.31L29.1031 8.21777L27.8509 12.6532H26.7496L25.3315 7.50385H26.2518Z" fill="#68737E"/>
<path d="M34.1717 10.3291C34.2019 10.7544 34.2472 10.967 34.3829 11.2405C34.6394 11.7265 35.2127 12.0455 35.7859 12.0455C36.4799 12.0455 36.9325 11.7114 37.1286 11.0582H38.0791C37.8377 12.167 37.0079 12.7898 35.7709 12.7898C34.2321 12.7898 33.2515 11.7265 33.2515 10.0557C33.2515 8.43034 34.2321 7.33667 35.6954 7.33667C37.2493 7.33667 38.0941 8.39996 38.0941 10.3139H34.1717V10.3291ZM36.9174 8.74933C36.676 8.3392 36.1933 8.09616 35.6954 8.09616C34.8355 8.09616 34.2924 8.643 34.1868 9.63034H37.1588C37.1135 9.17464 37.0532 8.96199 36.9174 8.74933Z" fill="#68737E"/>
<path d="M38.9541 5.54437H39.8291V8.27855C40.1912 7.67095 40.689 7.38235 41.4132 7.38235C42.6804 7.38235 43.5856 8.49121 43.5856 10.0861C43.5856 11.6811 42.7257 12.7596 41.4282 12.7596C40.7192 12.7596 40.2515 12.471 39.7989 11.8026V12.6532H38.9541V5.54437ZM39.8442 10.0558C39.8442 11.1798 40.4778 12.0153 41.3076 12.0153C42.1071 12.0153 42.6351 11.2558 42.6351 10.0861C42.6351 8.85576 42.1071 8.09627 41.2774 8.09627C40.4476 8.09627 39.8442 8.90133 39.8442 10.0558Z" fill="#68737E"/>
<path d="M45.1688 10.481C45.1537 11.3924 45.727 11.9848 46.6322 11.9848C47.4468 11.9848 48.0352 11.4683 48.0352 10.7544C48.0352 10.0253 47.477 9.5848 46.5718 9.5848C46.4813 9.5848 46.4059 9.5848 46.2701 9.59999V8.81011C46.3757 8.81011 46.4361 8.81011 46.4964 8.81011C47.4317 8.81011 47.9748 8.39999 47.9748 7.67087C47.9748 6.98733 47.4468 6.54682 46.6473 6.54682C45.7873 6.54682 45.2895 7.06328 45.2593 7.97467H44.324C44.3843 6.56201 45.2442 5.74176 46.6623 5.74176C47.9748 5.74176 48.8951 6.50125 48.8951 7.59492C48.8951 8.32404 48.3822 8.99239 47.6882 9.17467C48.533 9.38733 48.9856 9.96454 48.9856 10.8152C48.9856 11.9696 48.005 12.7899 46.6171 12.7899C45.1688 12.7899 44.1882 11.8481 44.2033 10.481H45.1688Z" fill="#68737E"/>
<path d="M26.2962 18.1215H25.376V17.4076H26.2962C26.3113 16.5569 26.3264 16.3746 26.4471 16.0708C26.6281 15.5848 27.0958 15.3265 27.7898 15.3265C27.9255 15.3265 28.0462 15.3417 28.2725 15.3569V16.1468C28.0613 16.086 27.9708 16.086 27.835 16.086C27.5333 16.086 27.307 16.2379 27.2316 16.5113C27.1712 16.6936 27.1712 16.8303 27.1712 17.3924H28.2725V18.1063H27.1712V22.5417H26.2962V18.1215Z" fill="#68737E"/>
<path d="M33.4175 19.9746C33.4175 21.6303 32.4369 22.7088 30.9283 22.7088C29.4498 22.7088 28.4692 21.5999 28.4692 19.9594C28.4692 18.3341 29.4649 17.2556 30.9585 17.2556C32.4218 17.2708 33.4175 18.3645 33.4175 19.9746ZM29.4197 19.929C29.4197 21.1898 29.9779 21.9645 30.9132 21.9645C31.8486 21.9645 32.4671 21.1898 32.4671 19.9898C32.4671 18.7746 31.8636 17.9999 30.9283 17.9999C29.9929 17.9999 29.4197 18.7442 29.4197 19.929Z" fill="#68737E"/>
<path d="M37.6714 21.9494C37.4149 22.4051 36.8265 22.6785 36.1326 22.6785C35.4235 22.6785 34.8653 22.3899 34.5636 21.8887C34.3675 21.5545 34.3071 21.2051 34.3071 20.3393V17.4077H35.1821V20.5064C35.1821 21.4785 35.5442 21.9342 36.2834 21.9342C36.7662 21.9342 37.1886 21.7064 37.43 21.3266C37.5808 21.0836 37.611 20.795 37.611 19.8836V17.4228H38.486V22.5722H37.6412V21.9494H37.6714Z" fill="#68737E"/>
<path d="M40.402 18.0304C40.7942 17.5139 41.2619 17.3013 41.9559 17.3013C42.6649 17.3013 43.2231 17.5899 43.5249 18.0911C43.721 18.4253 43.7813 18.7747 43.7813 19.6405V22.5722H42.8912V19.4734C42.8912 18.4861 42.5292 18.0456 41.7899 18.0456C41.2921 18.0456 40.8848 18.2734 40.6434 18.6684C40.4925 18.9114 40.4624 19.1848 40.4624 20.1114V22.5722H39.5723V17.4228H40.402V18.0304Z" fill="#68737E"/>
<path d="M48.4434 22.557V21.7063C47.9908 22.3899 47.508 22.6633 46.8141 22.6633C45.5317 22.6633 44.6567 21.5848 44.6567 20.0051C44.6567 18.395 45.5468 17.2861 46.8292 17.2861C47.5533 17.2861 48.0511 17.5747 48.4132 18.1823V15.4481H49.2882V22.5418H48.4434V22.557ZM45.6072 20.0051C45.6072 21.1747 46.1201 21.9342 46.9348 21.9342C47.7645 21.9342 48.3981 21.0988 48.3981 19.9747C48.3981 18.8203 47.8098 18.0152 46.98 18.0152C46.1503 18.0152 45.6072 18.7747 45.6072 20.0051Z" fill="#68737E"/>
<path d="M53.7234 22.5569C53.6781 22.2835 53.663 22.1924 53.6329 21.919C53.1954 22.4506 52.6975 22.6785 51.9885 22.6785C50.8872 22.6785 50.1479 22.0405 50.1479 21.1139C50.1479 20.4304 50.5251 19.9595 51.2794 19.7316C51.5208 19.6557 51.913 19.5797 52.3656 19.519C52.6523 19.4734 52.9842 19.4278 53.5574 19.3823C53.5423 18.7139 53.5122 18.5164 53.3311 18.319C53.1501 18.1215 52.8333 18 52.4411 18C51.6867 18 51.3096 18.3342 51.2643 19.0329H50.3441C50.4346 18.3949 50.5553 18.0759 50.8872 17.7873C51.2492 17.4531 51.8225 17.2557 52.4411 17.2557C53.2104 17.2557 53.8139 17.5139 54.1458 18.0152C54.4173 18.3949 54.4626 18.7747 54.4475 20.4152C54.4324 21.4481 54.4777 21.9949 54.6135 22.5569H53.7234ZM51.0984 21.1443C51.0984 21.6607 51.4906 21.9645 52.1242 21.9645C52.6673 21.9645 53.0898 21.7671 53.3462 21.3721C53.4971 21.1443 53.5574 20.8405 53.5574 20.2633V20.081C51.732 20.2025 51.0984 20.4759 51.0984 21.1443Z" fill="#68737E"/>
<path d="M56.7566 17.4227H57.9032V18.1367H56.7566V20.886C56.7566 21.4633 56.7717 21.5696 56.8622 21.6911C56.9528 21.8126 57.164 21.8886 57.4053 21.8886C57.5864 21.8886 57.7523 21.8582 57.9032 21.8126V22.5721C57.4959 22.6481 57.345 22.6633 57.1338 22.6633C56.6661 22.6633 56.2588 22.4506 56.0476 22.1012C55.9269 21.8734 55.8816 21.6607 55.8816 21.1595V20.8253V18.1215H54.9463V17.4076H55.8816V16.162H56.7566V17.4227Z" fill="#68737E"/>
<path d="M58.687 15.4633H59.562V16.4962H58.687V15.4633ZM59.5771 17.4228V22.5722H58.7021V17.4228H59.5771Z" fill="#68737E"/>
<path d="M65.3999 19.9747C65.3999 21.6304 64.4193 22.7088 62.9107 22.7088C61.4323 22.7088 60.4517 21.6 60.4517 19.9595C60.4517 18.3342 61.4473 17.2557 62.9409 17.2557C64.4042 17.2709 65.3999 18.3645 65.3999 19.9747ZM61.4021 19.9291C61.4021 21.1899 61.9603 21.9645 62.8956 21.9645C63.831 21.9645 64.4495 21.1899 64.4495 19.9899C64.4495 18.7747 63.8461 18 62.9107 18C61.9754 18 61.4021 18.7443 61.4021 19.9291Z" fill="#68737E"/>
<path d="M67.1199 18.0304C67.5121 17.5139 67.9798 17.3013 68.6738 17.3013C69.3828 17.3013 69.941 17.5899 70.2427 18.0911C70.4388 18.4253 70.4992 18.7747 70.4992 19.6405V22.5722H69.6242V19.4734C69.6242 18.4861 69.2621 18.0456 68.5229 18.0456C68.0251 18.0456 67.6177 18.2734 67.3763 18.6684C67.2255 18.9114 67.1953 19.1848 67.1953 20.1114V22.5722H66.3203V17.4228H67.1501V18.0304H67.1199Z" fill="#68737E"/>
</svg>
