<svg width="13" height="16" viewBox="0 0 13 16" fill="none" xmlns="http://www.w3.org/2000/svg">
<path d="M11 15H2C1.44771 15 1 14.5523 1 14V2C1 1.44772 1.44772 1 2 1H7.28571H7.66019C7.92364 1 8.17646 1.10397 8.36369 1.28931L11.7035 4.59539C11.8932 4.78321 12 5.0391 12 5.30608V5.66667V14C12 14.5523 11.5523 15 11 15Z" fill="#4170E7" fill-opacity="0.3"/>
<path d="M7.28571 1H2C1.44772 1 1 1.44772 1 2V14C1 14.5523 1.44771 15 2 15H11C11.5523 15 12 14.5523 12 14V5.66667M7.28571 1V4.66667C7.28571 5.21895 7.73343 5.66667 8.28571 5.66667H12M7.28571 1H7.66019C7.92364 1 8.17646 1.10397 8.36369 1.28931L11.7035 4.59539C11.8932 4.78321 12 5.0391 12 5.30608V5.66667" stroke="#4170E7" stroke-linecap="round" stroke-linejoin="round"/>
</svg>
